<?xml version="1.0" encoding="UTF-8"?>
<svg width="10px" height="10px" viewBox="0 0 10 10" version="1.1" xmlns="http://www.w3.org/2000/svg" xmlns:xlink="http://www.w3.org/1999/xlink">
    <!-- Generator: Sketch 52.5 (67469) - http://www.bohemiancoding.com/sketch -->
    <title>external-link</title>
    <desc>Created with Sketch.</desc>
    <g id="Page-1" stroke="none" stroke-width="1" fill="none" fill-rule="evenodd">
        <g id="Artboard-Copy" transform="translate(-277.000000, -128.000000)" fill="#FFFFFF">
            <g id="external-link" transform="translate(277.000000, 128.000000)">
                <path d="M6.34954751,1.14027149 C6.69570136,1.14027149 7.0418552,1.14027149 7.38687783,1.14027149 C7.94004525,1.14027149 8.49321267,1.14027149 9.04638009,1.14027149 C9.17307692,1.14027149 9.29864253,1.14027149 9.42533937,1.14027149 C9.23642534,0.951357466 9.04864253,0.763574661 8.85972851,0.574660633 C8.85972851,0.92081448 8.85972851,1.26696833 8.85972851,1.61199095 C8.85972851,2.16515837 8.85972851,2.71832579 8.85972851,3.27149321 C8.85972851,3.39819005 8.85972851,3.52375566 8.85972851,3.65045249 C8.85972851,3.79524887 8.92307692,3.9479638 9.02488688,4.05090498 C9.12330317,4.14932127 9.28393665,4.22285068 9.42533937,4.21606335 C9.57126697,4.20927602 9.72285068,4.16176471 9.82579186,4.05090498 C9.92760181,3.94004525 9.99095023,3.80429864 9.99095023,3.65045249 C9.99095023,3.30429864 9.99095023,2.9581448 9.99095023,2.61312217 C9.99095023,2.05995475 9.99095023,1.50678733 9.99095023,0.95361991 C9.99095023,0.826923077 9.99095023,0.701357466 9.99095023,0.574660633 C9.99095023,0.269230769 9.73190045,0.00904977376 9.42533937,0.00904977376 C9.07918552,0.00904977376 8.73303167,0.00904977376 8.38800905,0.00904977376 C7.83484163,0.00904977376 7.28167421,0.00904977376 6.72850679,0.00904977376 C6.60180995,0.00904977376 6.47624434,0.00904977376 6.34954751,0.00904977376 C6.20475113,0.00904977376 6.0520362,0.07239819 5.94909502,0.174208145 C5.85067873,0.272624434 5.77714932,0.433257919 5.78393665,0.574660633 C5.79072398,0.720588235 5.83823529,0.872171946 5.94909502,0.975113122 C6.05995475,1.07579186 6.19570136,1.14027149 6.34954751,1.14027149 Z" id="Path"></path>
                <path d="M4.72171946,6.07918552 C4.89140271,5.90950226 5.05995475,5.74095023 5.22963801,5.57126697 C5.63574661,5.16515837 6.0418552,4.75904977 6.44909502,4.35180995 C6.94117647,3.85972851 7.4321267,3.36877828 7.92420814,2.87669683 C8.34954751,2.45135747 8.77375566,2.02714932 9.19909502,1.60180995 C9.4061086,1.39479638 9.61425339,1.19117647 9.81900452,0.981900452 C9.82239819,0.978506787 9.82466063,0.976244344 9.8280543,0.972850679 C9.93099548,0.869909502 9.99321267,0.718325792 9.99321267,0.57239819 C9.99321267,0.433257919 9.9321267,0.268099548 9.8280543,0.171945701 C9.72058824,0.0735294118 9.57918552,-6.41847686e-16 9.42760181,0.00678733032 C9.27714932,0.0135746606 9.13574661,0.064479638 9.02714932,0.171945701 C8.85746606,0.341628959 8.68891403,0.510180995 8.51923077,0.679864253 C8.11312217,1.08597285 7.70701357,1.49208145 7.29977376,1.89932127 C6.80769231,2.39140271 6.31674208,2.88235294 5.82466063,3.37443439 C5.39932127,3.79977376 4.97511312,4.2239819 4.54977376,4.64932127 C4.34276018,4.85633484 4.13461538,5.05995475 3.92986425,5.26923077 C3.92647059,5.27262443 3.92420814,5.27488688 3.92081448,5.27828054 C3.8178733,5.38122172 3.75565611,5.53280543 3.75565611,5.67873303 C3.75565611,5.8178733 3.81674208,5.98303167 3.92081448,6.07918552 C4.02828054,6.17760181 4.16968326,6.25113122 4.32126697,6.24434389 C4.47171946,6.23755656 4.61312217,6.18665158 4.72171946,6.07918552 Z" id="Path"></path>
                <path d="M8.86085973,5.91402715 C8.86085973,6.23076923 8.86085973,6.54751131 8.86085973,6.86538462 C8.86085973,7.35859729 8.86085973,7.85180995 8.86085973,8.34502262 C8.86085973,8.47850679 8.87104072,8.61651584 8.85294118,8.74886878 C8.85972851,8.69909502 8.86651584,8.64819005 8.87330317,8.59841629 C8.86312217,8.66402715 8.84615385,8.72624434 8.82126697,8.78846154 C8.84049774,8.74321267 8.85972851,8.6979638 8.87782805,8.65384615 C8.85067873,8.71832579 8.81561086,8.77714932 8.77375566,8.83371041 C8.80316742,8.79524887 8.83257919,8.75791855 8.86199095,8.71945701 C8.81900452,8.77375566 8.77036199,8.82239819 8.71606335,8.86538462 C8.75452489,8.83597285 8.7918552,8.80656109 8.83031674,8.77714932 C8.77488688,8.81900452 8.71493213,8.8540724 8.65045249,8.88122172 C8.69570136,8.86199095 8.74095023,8.84276018 8.78506787,8.82466063 C8.7239819,8.84954751 8.66063348,8.86651584 8.59502262,8.87669683 C8.64479638,8.8699095 8.69570136,8.86312217 8.74547511,8.85633484 C8.65271493,8.86877828 8.55656109,8.86425339 8.46266968,8.86425339 C8.28733032,8.86425339 8.11312217,8.86425339 7.93778281,8.86425339 C7.3540724,8.86425339 6.77036199,8.86425339 6.18665158,8.86425339 C5.47737557,8.86425339 4.76696833,8.86425339 4.05769231,8.86425339 C3.44683258,8.86425339 2.83597285,8.86425339 2.22511312,8.86425339 C1.93778281,8.86425339 1.65045249,8.86651584 1.36425339,8.86425339 C1.32579186,8.86425339 1.28733032,8.86199095 1.24886878,8.85633484 C1.29864253,8.86312217 1.34954751,8.8699095 1.39932127,8.87669683 C1.33371041,8.86651584 1.27149321,8.84954751 1.20927602,8.82466063 C1.25452489,8.8438914 1.29977376,8.86312217 1.3438914,8.88122172 C1.27941176,8.8540724 1.22058824,8.81900452 1.16402715,8.77714932 C1.20248869,8.80656109 1.239819,8.83597285 1.27828054,8.86538462 C1.2239819,8.82239819 1.17533937,8.77375566 1.13235294,8.71945701 C1.16176471,8.75791855 1.19117647,8.79524887 1.22058824,8.83371041 C1.17873303,8.77828054 1.14366516,8.71832579 1.11651584,8.65384615 C1.13574661,8.69909502 1.15497738,8.74434389 1.17307692,8.78846154 C1.14819005,8.72737557 1.13122172,8.66402715 1.12104072,8.59841629 C1.12782805,8.64819005 1.13461538,8.69909502 1.14140271,8.74886878 C1.12895928,8.6561086 1.13348416,8.55995475 1.13348416,8.46606335 C1.13348416,8.29072398 1.13348416,8.11651584 1.13348416,7.94117647 C1.13348416,7.35746606 1.13348416,6.77375566 1.13348416,6.19004525 C1.13348416,5.48076923 1.13348416,4.77036199 1.13348416,4.06108597 C1.13348416,3.45022624 1.13348416,2.83936652 1.13348416,2.22850679 C1.13348416,1.94117647 1.13122172,1.65384615 1.13348416,1.36764706 C1.13348416,1.32918552 1.13574661,1.29072398 1.14140271,1.25226244 C1.13461538,1.3020362 1.12782805,1.35294118 1.12104072,1.40271493 C1.13122172,1.33710407 1.14819005,1.27488688 1.17307692,1.21266968 C1.15384615,1.25791855 1.13461538,1.30316742 1.11651584,1.34728507 C1.14366516,1.28280543 1.17873303,1.2239819 1.22058824,1.16742081 C1.19117647,1.20588235 1.16176471,1.24321267 1.13235294,1.28167421 C1.17533937,1.22737557 1.2239819,1.17873303 1.27828054,1.13574661 C1.239819,1.16515837 1.20248869,1.19457014 1.16402715,1.2239819 C1.21945701,1.1821267 1.27941176,1.14705882 1.3438914,1.1199095 C1.29864253,1.13914027 1.25339367,1.15837104 1.20927602,1.17647059 C1.27036199,1.15158371 1.33371041,1.13461538 1.39932127,1.12443439 C1.34954751,1.13122172 1.29864253,1.13800905 1.24886878,1.14479638 C1.36085973,1.1300905 1.47737557,1.13687783 1.58936652,1.13687783 C1.80429864,1.13687783 2.01809955,1.13687783 2.23303167,1.13687783 C2.7341629,1.13687783 3.2341629,1.13687783 3.73529412,1.13687783 C3.85180995,1.13687783 3.96719457,1.13687783 4.08371041,1.13687783 C4.22850679,1.13687783 4.38122172,1.07352941 4.4841629,0.971719457 C4.58257919,0.873303167 4.6561086,0.712669683 4.64932127,0.571266968 C4.64253394,0.425339367 4.59502262,0.273755656 4.4841629,0.17081448 C4.37330317,0.0690045249 4.23755656,0.0056561086 4.08371041,0.0056561086 C3.77036199,0.0056561086 3.45701357,0.0056561086 3.14366516,0.0056561086 C2.65384615,0.0056561086 2.16515837,0.0056561086 1.67533937,0.0056561086 C1.57013575,0.0056561086 1.46493213,0.00452488688 1.35972851,0.0056561086 C1.11877828,0.00791855204 0.874434389,0.0712669683 0.667420814,0.195701357 C0.556561086,0.262443439 0.446832579,0.347285068 0.36199095,0.445701357 C0.274886878,0.54638009 0.194570136,0.65158371 0.141402715,0.773755656 C0.107466063,0.852941176 0.0701357466,0.932126697 0.0486425339,1.0158371 C0.0260180995,1.10633484 0.0147058824,1.20135747 0.00678733032,1.29524887 C0.00452488688,1.3178733 0.00452488688,1.33936652 0.00452488688,1.36199095 C0.00452488688,1.37895928 0.00452488688,1.39479638 0.00452488688,1.41176471 C0.00452488688,1.49773756 0.00452488688,1.58371041 0.00452488688,1.66855204 C0.00452488688,2.00678733 0.00452488688,2.3438914 0.00452488688,2.6821267 C0.00452488688,3.16402715 0.00452488688,3.6459276 0.00452488688,4.12782805 C0.00452488688,4.66063348 0.00452488688,5.19343891 0.00452488688,5.72624434 C0.00452488688,6.21606335 0.00452488688,6.70701357 0.00452488688,7.19683258 C0.00452488688,7.55090498 0.00452488688,7.90497738 0.00452488688,8.25904977 C0.00452488688,8.48303167 -0.00339366516,8.70248869 0.0373303167,8.92420814 C0.0825791855,9.17420814 0.230769231,9.42533937 0.411764706,9.60067873 C0.505656109,9.69117647 0.614253394,9.7760181 0.731900452,9.83257919 C0.811085973,9.87104072 0.893665158,9.90723982 0.978506787,9.93325792 C1.06561086,9.95927602 1.15837104,9.96945701 1.24773756,9.97963801 C1.31447964,9.98755656 1.38122172,9.98755656 1.4479638,9.98755656 C1.70361991,9.98755656 1.95927602,9.98755656 2.21606335,9.98755656 C2.65045249,9.98755656 3.08597285,9.98755656 3.52036199,9.98755656 C4.04638009,9.98755656 4.57239819,9.98755656 5.09728507,9.98755656 C5.61538462,9.98755656 6.13348416,9.98755656 6.65158371,9.98755656 C7.07013575,9.98755656 7.48868778,9.98755656 7.90837104,9.98755656 C8.13461538,9.98755656 8.35972851,9.98755656 8.58597285,9.98755656 C8.60180995,9.98755656 8.61651584,9.98755656 8.63235294,9.98755656 C8.85746606,9.98529412 9.05882353,9.92986425 9.260181,9.83257919 C9.48868778,9.72285068 9.69570136,9.51470588 9.81561086,9.29298643 C9.92647059,9.08823529 9.98529412,8.86425339 9.98755656,8.63122172 C9.989819,8.2918552 9.98755656,7.95248869 9.98755656,7.61312217 C9.98755656,7.13122172 9.98755656,6.65045249 9.98755656,6.16855204 C9.98755656,6.08257919 9.98755656,5.99547511 9.98755656,5.90950226 C9.98755656,5.76470588 9.92420814,5.61199095 9.82239819,5.50904977 C9.7239819,5.41063348 9.56334842,5.33710407 9.4219457,5.3438914 C9.2760181,5.35067873 9.12443439,5.39819005 9.02149321,5.50904977 C8.92420814,5.62443439 8.86085973,5.760181 8.86085973,5.91402715 Z" id="Path"></path>
            </g>
        </g>
    </g>
</svg>