<svg width="21" height="33" viewBox="0 0 21 33" fill="none" xmlns="http://www.w3.org/2000/svg">
<mask id="mask0" mask-type="alpha" maskUnits="userSpaceOnUse" x="0" y="0" width="21" height="22">
<rect width="21" height="21.6207" fill="white"/>
</mask>
<g mask="url(#mask0)">
<path d="M-0.583334 40.9655C10.6925 40.9655 19.8333 32.0498 19.8333 21.0517C19.8333 10.0536 10.6925 1.13792 -0.583334 1.13792C-11.8591 1.13792 -21 10.0536 -21 21.0517C-21 32.0498 -11.8591 40.9655 -0.583334 40.9655Z" stroke="#2A2A2A" stroke-width="2"/>
<path d="M-0.583415 35.2759C7.47074 35.2759 13.9999 28.9075 13.9999 21.0517C13.9999 13.196 7.47074 6.82759 -0.583415 6.82759C-8.63757 6.82759 -15.1667 13.196 -15.1667 21.0517C-15.1667 28.9075 -8.63757 35.2759 -0.583415 35.2759Z" stroke="#0076FF" stroke-width="2"/>
<path d="M-0.583252 29.5862C4.24924 29.5862 8.16675 25.7652 8.16675 21.0517C8.16675 16.3383 4.24924 12.5172 -0.583252 12.5172C-5.41574 12.5172 -9.33325 16.3383 -9.33325 21.0517C-9.33325 25.7652 -5.41574 29.5862 -0.583252 29.5862Z" stroke="#2A2A2A" stroke-width="2"/>
<path d="M-0.583333 23.8965C1.0275 23.8965 2.33333 22.6229 2.33333 21.0517C2.33333 19.4806 1.0275 18.2069 -0.583333 18.2069C-2.19416 18.2069 -3.5 19.4806 -3.5 21.0517C-3.5 22.6229 -2.19416 23.8965 -0.583333 23.8965Z" fill="#2A2A2A" stroke="#2A2A2A" stroke-width="2"/>
</g>
<rect y="23.8965" width="1.98333" height="9.10345" fill="#2A2A2A"/>
<path fill-rule="evenodd" clip-rule="evenodd" d="M9.2008 30.4813C9.2008 30.1337 9.05942 29.869 8.77665 29.6872C8.49388 29.5053 8.02481 29.3449 7.36942 29.2059C6.71403 29.0668 6.167 28.8904 5.72831 28.6765C4.76637 28.2059 4.28541 27.5241 4.28541 26.631C4.28541 25.8823 4.59724 25.2567 5.22092 24.754C5.8446 24.2513 6.63739 24 7.59933 24C8.6247 24 9.45317 24.2567 10.0848 24.77C10.7164 25.2834 11.0322 25.9492 11.0322 26.7674H9.10566C9.10566 26.393 8.96824 26.0815 8.6934 25.8329C8.41856 25.5842 8.05388 25.4599 7.59933 25.4599C7.1765 25.4599 6.83164 25.5588 6.56472 25.7567C6.29781 25.9545 6.16436 26.2192 6.16436 26.5508C6.16436 26.8503 6.28856 27.0829 6.53698 27.2487C6.78539 27.4144 7.28749 27.5815 8.0433 27.75C8.79912 27.9184 9.39239 28.119 9.82315 28.3516C10.2539 28.5842 10.5737 28.8636 10.7824 29.1898C10.9912 29.516 11.0956 29.9118 11.0956 30.377C11.0956 31.1577 10.7758 31.7901 10.1363 32.2741C9.49678 32.758 8.65905 33 7.62312 33C6.92016 33 6.29385 32.8716 5.74417 32.615C5.19449 32.3583 4.76638 32.0053 4.45983 31.5561C4.15327 31.1069 4 30.623 4 30.1043H5.87102C5.89745 30.5642 6.06922 30.9184 6.38634 31.1671C6.70347 31.4158 7.12365 31.5401 7.6469 31.5401C8.1543 31.5401 8.54013 31.4425 8.8044 31.2473C9.06867 31.0521 9.2008 30.7968 9.2008 30.4813ZM15.7198 24.1604L15.7753 25.1631C16.4096 24.3877 17.242 24 18.2727 24C20.0591 24 20.9682 25.0347 20.9999 27.1043V32.8396H19.0734V27.2166C19.0734 26.6658 18.9558 26.258 18.7206 25.9933C18.4854 25.7286 18.1009 25.5962 17.5671 25.5962C16.7901 25.5962 16.2114 25.9519 15.8308 26.6631V32.8396H13.9043V24.1604H15.7198Z" fill="#2A2A2A"/>
</svg>
