<svg width="519" height="369" viewBox="0 0 519 369" fill="none" xmlns="http://www.w3.org/2000/svg">
<g clip-path="url(#clip0)">
<path opacity="0.1" d="M519 236.864C519.012 246.83 517.968 256.769 515.885 266.515C515.186 269.779 514.373 272.978 513.448 276.112C512.302 280.019 510.992 283.807 509.517 287.476C508.768 289.345 507.977 291.181 507.142 292.984C507.171 303.152 505.354 313.24 501.78 322.759C495.456 339.503 483.942 353.163 469.533 361.143C460.555 366.152 450.446 368.786 440.164 368.793H98.5237C80.2634 368.793 63.3383 362.302 49.4624 351.242C45.4054 347.996 41.6357 344.406 38.1951 340.512C33.409 335.081 29.2536 329.125 25.8086 322.759C17.8153 308.063 13.2105 290.764 13.2105 272.248C4.86031 255.34 0 235.071 0 213.259C0 185.767 7.73772 160.694 20.4503 141.707C23.0723 137.782 25.975 134.051 29.1354 130.545C32.1884 127.152 35.5099 124.01 39.0676 121.151C41.8569 118.909 44.8019 116.868 47.8804 115.043C49.1539 114.294 50.4318 113.589 51.7317 112.933C52.8715 112.345 54.026 111.797 55.1951 111.289C56.5964 110.672 58.0153 110.107 59.4518 109.593C60.8883 109.078 62.3057 108.628 63.704 108.24C65.7706 107.662 67.8667 107.196 69.9832 106.843C71.7458 106.539 73.5083 106.314 75.2709 106.169C76.6722 106.054 78.0852 105.988 79.5099 105.97C79.7699 105.97 80.0211 105.97 80.281 105.97C81.8497 105.97 83.4096 106.045 84.9563 106.164C85.1193 105.785 85.2956 105.406 85.4586 105.027C86.0755 103.67 86.7145 102.322 87.3578 100.991C87.3591 100.979 87.3591 100.968 87.3578 100.956C87.468 100.727 87.5781 100.515 87.6927 100.273C88.2127 99.1889 88.7546 98.1138 89.3099 97.0474C89.5654 96.5539 89.8166 96.0648 90.0766 95.5756C90.1339 95.4611 90.1911 95.3509 90.2572 95.2364C90.5216 94.7296 90.7904 94.2273 91.0636 93.7249C92.4237 91.2191 93.8382 88.7515 95.307 86.3221C95.4348 86.115 95.5538 85.9079 95.6816 85.7052C95.9107 85.3307 96.1222 84.9561 96.3778 84.586C96.9859 83.5989 97.6116 82.6163 98.2417 81.6425C98.6824 80.9551 99.123 80.2676 99.5989 79.5891C100.745 77.8705 101.92 76.1741 103.124 74.4996C104.328 72.8252 105.58 71.1507 106.878 69.4763C107.055 69.2471 107.231 69.0356 107.416 68.7933L109.297 66.427L109.557 66.1053L110.24 65.2725C111.25 64.0431 112.285 62.8269 113.325 61.624C118.562 55.5882 124.2 49.913 130.202 44.6371C130.435 44.4212 130.673 44.1965 130.907 44.0114C132.026 43.0376 133.163 42.077 134.3 41.134C140.496 35.9963 147.034 31.2853 153.869 27.0334C154.336 26.7337 154.812 26.4429 155.292 26.1521C161.329 22.4633 167.582 19.1379 174.015 16.1935C177.54 14.5719 181.102 13.0708 184.701 11.6901C187.089 10.7824 189.486 9.92755 191.914 9.11677C195.668 7.87709 199.47 6.75344 203.318 5.74584C214.605 2.81402 226.152 0.995741 237.794 0.317095C241.319 0.105586 244.884 -0.000168675 248.488 -0.000168675C265.947 -0.0161963 283.315 2.52085 300.039 7.53045C300.193 7.82159 300.423 8.06511 300.705 8.23449C300.987 8.40387 301.31 8.49261 301.639 8.49105H303.124C303.767 8.69375 304.406 8.90526 305.049 9.11677C308.642 10.3094 312.183 11.6152 315.673 13.0341L316.555 13.3954C333.221 20.2523 348.755 29.5909 362.628 41.0943C363.66 41.9433 364.676 42.8055 365.678 43.6809C366.894 42.7791 368.131 41.9169 369.388 41.0943C374.171 37.9317 379.335 35.388 384.758 33.5241C395.861 29.7022 407.831 29.1606 419.234 31.9642C433.885 35.5554 447.149 44.4653 457.861 57.1338C462.277 62.3983 466.158 68.0903 469.445 74.1251C469.688 74.5657 469.93 75.0064 470.163 75.447C473.057 80.9102 475.524 86.5895 477.54 92.4338C477.615 92.6454 477.69 92.8745 477.756 93.0684C479.645 98.6202 481.162 104.292 482.294 110.046C482.347 110.337 482.409 110.632 482.462 110.928C483.53 116.54 484.254 122.213 484.63 127.915C484.63 128.122 484.63 128.329 484.665 128.536C484.85 131.491 484.944 134.479 484.947 137.499C484.947 140.201 484.872 142.877 484.722 145.527C484.722 145.822 484.687 146.122 484.665 146.408C484.625 147.18 484.568 147.951 484.511 148.717C487.91 151.89 491.06 155.319 493.932 158.976C495.216 160.6 496.458 162.282 497.66 164.021C501.358 169.388 504.573 175.072 507.266 181.008C514.717 197.29 519 216.405 519 236.864Z" fill="#0076FF"/>
<path opacity="0.1" d="M472.732 351.766C472.732 358.31 452.498 364.281 419.247 368.793H107.271C74.024 364.281 53.7896 358.31 53.7896 351.766C53.7896 346.783 65.5283 342.129 85.8244 338.199L86.3973 338.089C92.1256 336.991 98.5282 335.951 105.526 334.978L106.059 334.903C111.611 334.136 117.517 333.412 123.777 332.73L124.368 332.669C126.782 332.404 129.247 332.149 131.762 331.902L132.731 331.809C151.04 330.047 171.851 328.619 194.421 327.663H194.448C197.609 327.531 200.803 327.407 204.032 327.293C207.622 327.161 211.255 327.043 214.933 326.94C217.74 326.857 220.582 326.786 223.433 326.72H223.499C236.362 326.416 249.652 326.257 263.241 326.257C296.845 326.257 328.606 327.222 356.75 328.936H356.83C361.157 329.201 365.405 329.478 369.547 329.778L373.072 330.038C377.746 330.391 382.299 330.764 386.732 331.157C438.873 335.797 472.732 343.301 472.732 351.766Z" fill="#0076FF"/>
<path opacity="0.03" d="M139.645 46.4087V59.7735C139.645 60.0111 139.599 60.2465 139.509 60.4662C139.418 60.6859 139.285 60.8856 139.117 61.0538C138.949 61.222 138.75 61.3555 138.531 61.4466C138.311 61.5376 138.076 61.5845 137.838 61.5845H113.374C118.61 55.5488 124.249 49.8736 130.25 44.5977H137.843C138.08 44.5982 138.315 44.6455 138.534 44.7369C138.753 44.8282 138.951 44.9618 139.119 45.1299C139.286 45.2981 139.419 45.4976 139.509 45.717C139.599 45.9364 139.645 46.1715 139.645 46.4087V46.4087Z" stroke="white" stroke-miterlimit="10"/>
<path d="M439.019 46.3821V247.149C439.019 248.551 438.461 249.896 437.47 250.888C436.478 251.879 435.133 252.436 433.731 252.436H75.2709C73.8685 252.436 72.5235 251.879 71.5319 250.888C70.5402 249.896 69.9832 248.551 69.9832 247.149V106.843C71.7457 106.539 73.5083 106.314 75.2709 106.169C76.6721 106.054 78.0851 105.988 79.5099 105.97C79.7699 105.97 80.021 105.97 80.281 105.97C81.8497 105.97 83.4096 106.045 84.9563 106.164C85.1193 105.785 85.2956 105.406 85.4586 105.027C86.0755 103.67 86.7144 102.322 87.3578 100.991C87.3591 100.979 87.3591 100.968 87.3578 100.956C87.4679 100.727 87.5781 100.515 87.6927 100.273C88.2126 99.1889 88.7546 98.1138 89.3098 97.0474C89.5654 96.5539 89.8166 96.0648 90.0765 95.5757C90.1338 95.4611 90.1911 95.3509 90.2572 95.2364C90.5216 94.7296 90.7904 94.2273 91.0636 93.725C92.4237 91.2192 93.8382 88.7516 95.307 86.3221C95.4348 86.115 95.5538 85.9079 95.6815 85.7052C95.9107 85.3307 96.1222 84.9561 96.3778 84.586C96.9859 83.599 97.6116 82.6163 98.2417 81.6425C98.6823 80.9551 99.123 80.2677 99.5989 79.5891C100.745 77.8706 101.92 76.1741 103.124 74.4996C104.328 72.8252 105.58 71.1507 106.878 69.4763C107.055 69.2472 107.231 69.0356 107.416 68.7933L109.297 66.427L109.557 66.1054L110.24 65.2725C111.25 64.0431 112.285 62.827 113.325 61.624C118.562 55.5883 124.2 49.9131 130.202 44.6372C130.435 44.4212 130.673 44.1965 130.907 44.0114C132.026 43.0376 133.163 42.077 134.3 41.134H362.642C363.673 41.983 364.689 42.8452 365.691 43.7206C366.907 42.8188 368.144 41.9566 369.401 41.134H433.735C435.13 41.1352 436.468 41.6873 437.457 42.6703C438.447 43.6532 439.008 44.9874 439.019 46.3821Z" fill="white"/>
<path d="M417.881 79.5627V84.5597H96.4087C97.0168 83.5726 97.6425 82.59 98.277 81.6162C98.7177 80.9287 99.1583 80.2413 99.6298 79.5627H417.881Z" fill="#3F3D56"/>
<path d="M348.929 245.443V55.1509H343.932V245.443H348.929Z" fill="#3F3D56"/>
<path d="M256.997 245.443V55.1509H252V245.443H256.997Z" fill="#3F3D56"/>
<path d="M165.065 245.443V55.1509H160.069V245.443H165.065Z" fill="#3F3D56"/>
<path d="M107.694 95.2102V114.889H87.3711V100.965C87.3711 100.965 87.3711 100.943 87.3711 100.93C87.4813 100.701 87.5914 100.489 87.706 100.247C88.2304 99.1628 88.7679 98.0876 89.3276 97.0213C89.5787 96.5277 89.8299 96.0386 90.0899 95.5495C90.1472 95.4349 90.2088 95.3248 90.2705 95.2102H107.694Z" fill="url(#paint0_linear)"/>
<path d="M107.345 95.5494V114.55H87.7234V100.233C88.2478 99.1494 88.7853 98.0742 89.345 97.0079C89.5961 96.5144 89.8473 96.0252 90.1073 95.5361L107.345 95.5494Z" fill="#7CFCFF"/>
<path d="M190.01 89.2129H169.683V108.892H190.01V89.2129Z" fill="url(#paint1_linear)"/>
<path d="M189.662 89.5522H170.036V108.553H189.662V89.5522Z" fill="#7CFCFF"/>
<path d="M281.819 127.421H261.492V147.101H281.819V127.421Z" fill="url(#paint2_linear)"/>
<path d="M281.471 127.761H261.844V146.761H281.471V127.761Z" fill="#7CFCFF"/>
<path d="M375.5 140.456H355.173V160.135H375.5V140.456Z" fill="url(#paint3_linear)"/>
<path d="M375.147 140.795H355.521V159.796H375.147V140.795Z" fill="#7CFCFF"/>
<path d="M400.599 153.194H380.272V172.874H400.599V153.194Z" fill="url(#paint4_linear)"/>
<path d="M400.251 153.534H380.624V172.534H400.251V153.534Z" fill="#7CFCFF"/>
<path d="M432.078 119.155H411.751V138.834H432.078V119.155Z" fill="url(#paint5_linear)"/>
<path d="M431.726 119.494H412.1V138.494H431.726V119.494Z" fill="#7CFCFF"/>
<path d="M425.707 146.766H405.38V166.445H425.707V146.766Z" fill="url(#paint6_linear)"/>
<path d="M425.354 147.105H405.728V166.106H425.354V147.105Z" fill="#7CFCFF"/>
<path d="M217.74 89.2129H197.413V108.892H217.74V89.2129Z" fill="url(#paint7_linear)"/>
<path d="M217.392 89.5522H197.766V108.553H217.392V89.5522Z" fill="#7CFCFF"/>
<path d="M122.764 136.921H102.437V156.601H122.764V136.921Z" fill="url(#paint8_linear)"/>
<path d="M122.411 137.261H102.785V156.261H122.411V137.261Z" fill="#FFFFA5"/>
<path d="M204.679 117.582H184.353V137.261H204.679V117.582Z" fill="url(#paint9_linear)"/>
<path d="M204.331 117.921H184.705V136.922H204.331V117.921Z" fill="#FFFFA5"/>
<path d="M310.628 105.821H290.301V125.5H310.628V105.821Z" fill="url(#paint10_linear)"/>
<path d="M310.275 106.16H290.649V125.161H310.275V106.16Z" fill="#FFFFA5"/>
<path d="M417.877 92.0198H397.55V111.699H417.877V92.0198Z" fill="url(#paint11_linear)"/>
<path d="M417.528 92.3591H397.902V111.36H417.528V92.3591Z" fill="#FFFFA5"/>
<path d="M337.446 89.2129H317.119V108.892H337.446V89.2129Z" fill="url(#paint12_linear)"/>
<path d="M337.093 89.5522H317.467V108.553H337.093V89.5522Z" fill="#FFFFA5"/>
<path d="M336.291 127.421H315.964V147.101H336.291V127.421Z" fill="url(#paint13_linear)"/>
<path d="M335.943 127.761H316.317V146.761H335.943V127.761Z" fill="#FFFFA5"/>
<path d="M245.034 98.7178H224.707V118.397H245.034V98.7178Z" fill="url(#paint14_linear)"/>
<path d="M244.686 99.0525H225.059V118.053H244.686V99.0525Z" fill="#FFFFA5"/>
<path d="M137.032 105.05H116.705V124.729H137.032V105.05Z" fill="url(#paint15_linear)"/>
<path d="M136.684 105.389H117.057V124.39H136.684V105.389Z" fill="#FF69B4"/>
<path d="M147.197 127.421H126.87V147.101H147.197V127.421Z" fill="url(#paint16_linear)"/>
<path d="M146.845 127.761H127.219V146.761H146.845V127.761Z" fill="#FF69B4"/>
<path d="M231.51 130.616H211.183V150.295H231.51V130.616Z" fill="url(#paint17_linear)"/>
<path d="M231.158 130.955H211.531V149.956H231.158V130.955Z" fill="#FF69B4"/>
<path d="M380.272 92.0198H359.945V111.699H380.272V92.0198Z" fill="url(#paint18_linear)"/>
<path d="M379.924 92.3591H360.297V111.36H379.924V92.3591Z" fill="#FF69B4"/>
<path d="M398.259 119.155H377.932V138.834H398.259V119.155Z" fill="url(#paint19_linear)"/>
<path d="M397.911 119.494H378.285V138.494H397.911V119.494Z" fill="#FF69B4"/>
<path d="M283.595 89.2129H263.268V108.892H283.595V89.2129Z" fill="url(#paint20_linear)"/>
<path d="M283.246 89.5522H263.62V108.553H283.246V89.5522Z" fill="#FF69B4"/>
<path d="M308.328 146.766H288.001V166.445H308.328V146.766Z" fill="url(#paint21_linear)"/>
<path d="M307.975 147.105H288.349V166.106H307.975V147.105Z" fill="#FF69B4"/>
<path d="M364.722 134.78C364.664 137.014 363.906 139.186 363.787 141.416C370.397 141.742 376.87 138.548 383.387 139.526C381.567 138.349 380.594 136.221 380.021 134.128C379.288 131.428 379.07 128.615 379.377 125.835C379.394 125.686 379.421 125.539 379.457 125.394C379.699 124.301 380.338 122.75 380.157 121.891C379.937 120.754 378.862 120.979 377.897 121.045C374.95 121.271 372.018 121.649 369.11 122.178C368.353 122.31 360.972 124.152 360.862 123.962C362.078 126.064 363.316 128.25 364.056 130.541C364.515 131.907 364.74 133.34 364.722 134.78Z" fill="#EE8E9E"/>
<path d="M299.599 127.871C300.164 128.644 300.843 129.327 301.612 129.898C302.11 130.308 302.621 130.726 303.159 131.101C304.115 131.833 305.253 132.29 306.451 132.423C308.019 132.528 311.351 131.607 312.324 130.263C312.735 129.589 312.93 128.805 312.884 128.016C312.867 126.946 312.686 125.885 312.346 124.87C311.735 123.22 310.877 121.672 309.804 120.278C308.671 118.701 307.411 117.15 305.724 116.194C305.161 115.893 304.582 115.627 303.987 115.396L300.903 114.136C300.727 114.053 300.537 114.003 300.343 113.99C299.519 113.99 299.369 115.255 299.837 115.934C300.771 117.304 302.873 117.696 303.463 119.239C302.964 119.25 302.481 119.421 302.085 119.725C301.689 120.029 301.4 120.451 301.26 120.931C301.237 121.185 301.133 121.426 300.965 121.618C300.696 121.834 300.273 121.711 299.964 121.874C299.422 122.164 299.66 122.975 299.603 123.592C299.55 124.139 299.206 124.61 299.039 125.134C298.925 125.604 298.916 126.092 299.013 126.565C299.11 127.038 299.31 127.484 299.599 127.871Z" fill="#EE8E9E"/>
<path d="M390.372 352.071C389.865 351.564 389.05 351.652 388.327 351.762C384.527 352.363 380.687 352.673 376.839 352.692C376.359 350.339 377.756 348.052 378.205 345.695C378.264 345.089 378.413 344.495 378.646 343.932C379.184 342.892 380.409 342.416 381.554 342.169C383.625 341.729 386.842 340.962 388.019 343.051C389.424 345.567 389.869 349.277 390.372 352.071Z" fill="#65617D"/>
<path d="M348.285 343.187C349.845 344.254 351.784 344.584 353.661 344.826C355.538 345.069 357.468 345.245 359.169 346.082C360.637 346.805 361.87 347.995 363.426 348.515C364.836 348.986 366.378 348.858 367.832 348.585C369.595 348.259 371.437 347.62 372.38 346.113C373.221 344.791 373.129 343.077 373.014 341.499C372.878 339.737 372.75 337.93 372.618 336.146C372.622 335.692 372.508 335.246 372.287 334.85C371.023 333.013 367.956 335.621 366.317 335.617C363.712 335.617 360.919 334.207 359.046 332.479C358.883 332.303 358.693 332.154 358.482 332.039C357.737 331.704 356.997 332.321 356.336 332.858C356.265 332.92 356.191 332.977 356.116 333.035C354.595 334.242 352.56 334.484 350.683 334.974C348.805 335.463 346.792 336.445 346.21 338.296C346.172 338.413 346.143 338.532 346.122 338.653C345.787 340.385 346.827 342.187 348.285 343.187Z" fill="#3F3D56"/>
<path opacity="0.05" d="M348.285 343.187C349.845 344.254 351.784 344.584 353.661 344.826C355.538 345.069 357.468 345.245 359.169 346.082C360.637 346.805 361.87 347.995 363.426 348.515C364.836 348.986 366.378 348.858 367.832 348.585C369.595 348.259 371.437 347.62 372.38 346.113C373.221 344.791 373.129 343.077 373.014 341.499C372.878 339.737 372.75 337.93 372.618 336.146C372.622 335.692 372.508 335.246 372.287 334.85C371.023 333.013 367.956 335.621 366.317 335.617C363.712 335.617 360.919 334.207 359.046 332.479C358.883 332.303 358.693 332.154 358.482 332.039C357.737 331.704 356.997 332.321 356.336 332.858C356.265 332.92 356.191 332.977 356.116 333.035C354.595 334.242 352.56 334.484 350.683 334.974C348.805 335.463 346.792 336.445 346.21 338.296C346.172 338.413 346.143 338.532 346.122 338.653C345.787 340.385 346.827 342.187 348.285 343.187Z" fill="black"/>
<path d="M348.285 343.786C349.845 344.853 351.784 345.183 353.661 345.426C355.538 345.668 357.468 345.844 359.169 346.681C360.637 347.409 361.871 348.594 363.426 349.114C364.836 349.585 366.378 349.458 367.832 349.184C369.692 348.788 371.324 347.681 372.38 346.1C373.222 344.778 373.129 343.064 373.014 341.486C372.878 339.724 372.75 337.917 372.618 336.132C372.622 335.679 372.508 335.233 372.287 334.837C371.023 332.999 367.956 335.608 366.317 335.604C363.712 335.604 360.919 334.194 359.046 332.466C358.883 332.29 358.693 332.141 358.482 332.026C357.737 331.691 356.997 332.308 356.336 332.845C356.771 334.18 357.386 335.449 358.165 336.617C359.487 338.552 361.566 340.032 363.893 340.204C365.056 340.288 366.251 340.059 367.374 340.358C368.498 340.658 369.547 341.808 369.137 342.901C368.727 343.994 367.374 344.223 366.237 344.262C364.647 344.346 363.016 344.425 361.509 343.932C360.588 343.623 359.747 343.117 358.865 342.742C355.054 341.16 350.238 342.046 347.087 339.376C346.79 339.102 346.468 338.856 346.126 338.64C345.302 340.385 346.827 342.786 348.285 343.786Z" fill="#E8EAF2"/>
<path opacity="0.05" d="M348.285 343.786C349.845 344.853 351.784 345.183 353.661 345.426C355.538 345.668 357.468 345.844 359.169 346.681C360.637 347.409 361.871 348.594 363.426 349.114C364.836 349.585 366.378 349.458 367.832 349.184C369.692 348.788 371.324 347.681 372.38 346.1C373.222 344.778 373.129 343.064 373.014 341.486C372.878 339.724 372.75 337.917 372.618 336.132C372.622 335.679 372.508 335.233 372.287 334.837C371.023 332.999 367.956 335.608 366.317 335.604C363.712 335.604 360.919 334.194 359.046 332.466C358.883 332.29 358.693 332.141 358.482 332.026C357.737 331.691 356.997 332.308 356.336 332.845C356.771 334.18 357.386 335.449 358.165 336.617C359.487 338.552 361.566 340.032 363.893 340.204C365.056 340.288 366.251 340.059 367.374 340.358C368.498 340.658 369.547 341.808 369.137 342.901C368.727 343.994 367.374 344.223 366.237 344.262C364.647 344.346 363.016 344.425 361.509 343.932C360.588 343.623 359.747 343.117 358.865 342.742C355.054 341.16 350.238 342.046 347.087 339.376C346.79 339.102 346.468 338.856 346.126 338.64C345.302 340.385 346.827 342.786 348.285 343.786Z" fill="black"/>
<path d="M389.662 227.108C390.878 233.074 389.724 239.278 386.445 244.408C385.564 245.792 384.507 247.091 383.837 248.594C383.397 249.669 383.055 250.781 382.814 251.916L379.924 263.898C379.139 267.132 378.355 270.428 378.602 273.746C378.765 276.059 379.347 278.659 377.923 280.488C377.572 280.835 377.275 281.233 377.042 281.669C376.905 282.18 376.905 282.718 377.042 283.229C378.505 291.927 379.593 301.017 376.949 309.434C374.552 317.061 374.411 325.513 372.376 333.229C372.124 334.189 371.834 335.198 371.107 335.872C370.561 336.324 369.908 336.627 369.212 336.754C366.207 337.472 363.043 336.63 360.231 335.335C358.262 334.423 356.142 332.823 356.31 330.66C356.393 329.629 356.993 328.725 357.402 327.778C358.2 325.918 358.284 323.843 358.482 321.829C359.024 316.771 360.584 311.893 361.76 306.944C362.937 301.996 363.739 296.831 362.743 291.843C360.713 281.531 357.459 271.499 353.049 261.959C352.859 261.457 352.557 261.005 352.168 260.637C351.771 260.311 351.247 260.161 350.907 259.756C350.568 259.35 350.467 258.733 350.335 258.191C349.894 256.614 348.594 255.45 347.722 254.062C345.518 250.564 346.215 246.078 346.298 241.945C346.378 237.922 345.8 233.863 346.457 229.897C347.113 225.932 349.387 221.878 353.212 220.644C355.107 220.031 357.156 220.168 359.139 220.366C369.6 221.411 379.796 223.336 389.662 227.108Z" fill="#303D5C"/>
<path opacity="0.05" d="M389.662 227.108C390.878 233.074 389.724 239.278 386.445 244.408C385.564 245.792 384.507 247.091 383.837 248.594C383.397 249.669 383.055 250.781 382.814 251.916L379.924 263.898C379.139 267.132 378.355 270.428 378.602 273.746C378.765 276.059 379.347 278.659 377.923 280.488C377.572 280.835 377.275 281.233 377.042 281.669C376.905 282.18 376.905 282.718 377.042 283.229C378.505 291.927 379.593 301.017 376.949 309.434C374.552 317.061 374.411 325.513 372.376 333.229C372.124 334.189 371.834 335.198 371.107 335.872C370.561 336.324 369.908 336.627 369.212 336.754C366.207 337.472 363.043 336.63 360.231 335.335C358.262 334.423 356.142 332.823 356.31 330.66C356.393 329.629 356.993 328.725 357.402 327.778C358.2 325.918 358.284 323.843 358.482 321.829C359.024 316.771 360.584 311.893 361.76 306.944C362.937 301.996 363.739 296.831 362.743 291.843C360.713 281.531 357.459 271.499 353.049 261.959C352.859 261.457 352.557 261.005 352.168 260.637C351.771 260.311 351.247 260.161 350.907 259.756C350.568 259.35 350.467 258.733 350.335 258.191C349.894 256.614 348.594 255.45 347.722 254.062C345.518 250.564 346.215 246.078 346.298 241.945C346.378 237.922 345.8 233.863 346.457 229.897C347.113 225.932 349.387 221.878 353.212 220.644C355.107 220.031 357.156 220.168 359.139 220.366C369.6 221.411 379.796 223.336 389.662 227.108Z" fill="black"/>
<path d="M346.884 252.326C346.917 253.887 347.094 255.442 347.413 256.971C349.264 267.355 351.236 277.716 353.331 288.054C353.516 288.935 353.697 289.847 353.939 290.728C354.72 293.605 356.085 296.29 357.949 298.616C366.674 309.491 367.427 325.288 372.164 338.406C372.481 339.287 372.803 340.169 373.142 341.05C373.996 343.274 374.971 345.45 376.064 347.567C376.189 347.876 376.397 348.146 376.663 348.347C376.957 348.495 377.287 348.559 377.615 348.532C381.88 348.561 386.094 347.606 389.931 345.743C390.483 345.544 390.949 345.161 391.253 344.659C391.398 344.259 391.444 343.829 391.389 343.407C391.257 340.808 391.099 338.12 389.86 335.828C389.036 334.461 388.014 333.223 386.829 332.153C386.459 323.993 385.652 315.814 383.859 307.843C382.938 303.767 381.796 299.647 379.452 296.201C377.69 293.659 375.204 291.151 375.513 288.08C375.65 286.758 376.214 285.057 375.116 284.264C374.636 283.916 373.927 283.872 373.605 283.383C373.475 283.151 373.403 282.891 373.393 282.625C373.167 280.519 373.298 278.39 373.781 276.328C374.098 274.962 374.574 273.623 374.72 272.226C374.865 270.829 374.618 269.309 373.689 268.26C373.631 265.457 373.689 262.531 373.649 259.755C373.623 258.156 373.592 256.534 374.041 255.005C374.257 254.269 374.579 253.569 374.742 252.802C375.328 250.114 373.861 246.889 375.623 244.756C376.35 243.875 377.469 243.434 378.417 242.791C380.316 241.522 381.559 239.451 382.25 237.278C382.942 235.106 383.132 232.806 383.339 230.527C383.389 230.043 383.389 229.554 383.339 229.069C383.31 228.818 383.244 228.574 383.145 228.342C382.603 227.126 381.149 226.654 379.853 226.341C371.627 224.368 363.196 223.383 354.737 223.407C351.608 221.274 349.845 222.036 348.519 224.288C347.789 225.667 347.199 227.115 346.756 228.611C346.148 230.439 346.113 240.689 345.523 242.526C344.699 244.932 346.915 249.814 346.884 252.326Z" fill="#303D5C"/>
<path d="M403.458 159.077C403.692 160.69 402.917 162.276 402.828 163.902C402.753 165.321 403.207 166.709 403.467 168.11C404.476 173.574 402.538 179.104 400.559 184.295C400.186 185.133 399.954 186.026 399.872 186.939C399.819 188.636 400.793 190.187 401.061 191.861C401.621 195.386 399.03 198.687 398.973 202.251C398.973 203.891 399.466 205.561 399.056 207.147C398.783 208.209 398.122 209.117 397.651 210.108C396.818 211.871 396.598 213.849 395.8 215.616C394.368 218.815 391.284 220.904 388.353 222.821C386.683 222.266 384.877 221.605 383.947 220.102C383.545 219.362 383.286 218.554 383.184 217.718C382.55 214.074 382.572 210.355 382.594 206.658C382.548 203.489 382.722 200.32 383.114 197.175C383.704 193.157 385.009 189.283 385.943 185.331C387.124 180.347 387.705 175.196 389.565 170.415C391.178 166.211 393.694 162.439 396.342 158.83C397.351 157.451 398.149 155.481 400.11 155.799C400.936 155.938 401.699 156.327 402.298 156.913C402.896 157.499 403.301 158.254 403.458 159.077Z" fill="#0076FF"/>
<path opacity="0.05" d="M403.458 159.077C403.692 160.69 402.917 162.276 402.828 163.902C402.753 165.321 403.207 166.709 403.467 168.11C404.476 173.574 402.538 179.104 400.559 184.295C400.186 185.133 399.954 186.026 399.872 186.939C399.819 188.636 400.793 190.187 401.061 191.861C401.621 195.386 399.03 198.687 398.973 202.251C398.973 203.891 399.466 205.561 399.056 207.147C398.783 208.209 398.122 209.117 397.651 210.108C396.818 211.871 396.598 213.849 395.8 215.616C394.368 218.815 391.284 220.904 388.353 222.821C386.683 222.266 384.877 221.605 383.947 220.102C383.545 219.362 383.286 218.554 383.184 217.718C382.55 214.074 382.572 210.355 382.594 206.658C382.548 203.489 382.722 200.32 383.114 197.175C383.704 193.157 385.009 189.283 385.943 185.331C387.124 180.347 387.705 175.196 389.565 170.415C391.178 166.211 393.694 162.439 396.342 158.83C397.351 157.451 398.149 155.481 400.11 155.799C400.936 155.938 401.699 156.327 402.298 156.913C402.896 157.499 403.301 158.254 403.458 159.077Z" fill="black"/>
<path opacity="0.1" d="M360.848 123.945C362.065 126.046 363.303 128.232 364.043 130.523C365.23 130.816 366.447 130.964 367.67 130.964C372.415 130.964 375.777 128.263 378.567 124.852C378.809 123.755 380.329 122.737 380.144 121.874C379.924 120.737 378.849 120.961 377.884 121.028C374.937 121.253 372.005 121.631 369.097 122.16C368.339 122.292 360.972 124.134 360.848 123.945Z" fill="black"/>
<path d="M367.683 130.55C376.081 130.55 382.889 123.742 382.889 115.343C382.889 106.945 376.081 100.136 367.683 100.136C359.284 100.136 352.476 106.945 352.476 115.343C352.476 123.742 359.284 130.55 367.683 130.55Z" fill="#EE8E9E"/>
<path opacity="0.1" d="M348.466 224.301C351.11 224.147 353.754 224.253 356.398 224.359C358.049 224.375 359.695 224.545 361.315 224.865C363.311 225.306 365.18 226.227 367.149 226.795C370.304 227.716 373.636 227.756 376.901 228.078C379.047 228.287 381.179 228.621 383.286 229.078C383.257 228.828 383.191 228.583 383.092 228.351C382.55 227.135 381.096 226.663 379.8 226.35C371.575 224.377 363.143 223.392 354.684 223.416C351.555 221.283 349.792 222.045 348.466 224.301Z" fill="black"/>
<path d="M358.83 140.24C359.496 141.007 360.386 141.853 361.368 141.606C361.723 141.483 362.056 141.304 362.355 141.077C364.118 139.945 366.259 139.68 368.322 139.372C372.479 138.745 376.586 137.822 380.611 136.609C381.779 136.183 383.005 135.933 384.247 135.869C386.824 135.869 389.094 137.596 390.724 139.605C392.354 141.615 393.482 143.963 395.069 145.995C396.197 147.444 397.541 148.722 398.594 150.225C401.238 154.019 401.828 158.972 401.141 163.559C400.453 168.146 398.62 172.464 396.805 176.734C395.765 179.18 394.716 181.638 393.28 183.868C393.892 187.354 393.571 191.337 391.914 194.444C391.372 195.461 390.711 196.453 390.535 197.594C390.451 198.364 390.482 199.142 390.627 199.903L391.403 205.407C391.636 207.086 391.874 208.76 392.178 210.426C392.738 213.475 393.5 216.784 392.086 219.543C390.394 222.843 392.169 227.078 391.724 230.761C386.967 228.922 381.982 227.736 376.905 227.236C373.636 226.915 370.296 226.875 367.154 225.958C365.184 225.386 363.32 224.478 361.32 224.02C359.698 223.702 358.05 223.534 356.398 223.517C352.754 223.372 349.083 223.226 345.479 223.764C345.183 223.808 344.831 223.83 344.655 223.592C344.575 223.459 344.537 223.306 344.544 223.152C344.489 221.8 344.812 220.46 345.479 219.283C345.919 218.472 346.576 217.674 346.558 216.745C346.525 216.309 346.418 215.883 346.241 215.484L344.646 211.219C343.293 207.623 343.936 203.442 343.236 199.665C342.689 196.711 342.338 193.725 342.187 190.724C342.055 188.16 342.139 185.379 343.685 183.33C344.138 182.837 344.53 182.291 344.853 181.705C345.076 181.082 345.17 180.421 345.131 179.761C345.166 174.632 345.019 169.505 344.69 164.378C346.043 161.955 347.448 159.474 348.797 157.05C350.365 154.23 351.961 151.353 352.595 148.189C353.036 146.092 353 143.937 353.3 141.822C353.33 141.283 353.517 140.766 353.838 140.332C354.353 139.751 355.221 139.667 356.001 139.689C356.967 139.728 357.921 139.913 358.83 140.24Z" fill="#0076FF"/>
<path opacity="0.1" d="M303.155 131.1C304.111 131.833 305.249 132.29 306.446 132.422C308.015 132.528 311.346 131.607 312.32 130.263C312.731 129.588 312.926 128.804 312.88 128.016C312.668 127.947 312.449 127.904 312.227 127.888C310.522 127.787 308.782 127.685 307.125 128.095C305.468 128.505 303.864 129.51 303.159 131.07L303.155 131.1Z" fill="black"/>
<path d="M353.754 163.995C352.824 165.145 351.863 166.335 350.55 167.013C349.039 167.798 347.259 167.815 345.558 167.78C338.549 167.63 331.567 166.863 324.693 165.489C323.911 165.354 323.142 165.148 322.398 164.872C321.572 164.478 320.793 163.993 320.075 163.426C317.815 161.8 315.519 160.144 313.796 157.949C311.751 155.301 310.466 152.146 310.077 148.823C308.438 147.316 307.57 145.17 306.75 143.095C306.347 142.216 306.091 141.277 305.992 140.315C305.948 139.332 306.6 138.301 306.433 137.331C306.118 135.663 305.272 134.141 304.023 132.991C303.756 132.803 303.554 132.537 303.445 132.229C303.413 131.972 303.462 131.711 303.586 131.484C304.283 129.924 305.887 128.919 307.552 128.51C309.218 128.1 310.95 128.206 312.655 128.307C313.272 128.347 313.721 128.633 314.325 128.748L315.515 131.881C315.676 132.404 315.941 132.89 316.295 133.308C316.56 133.548 316.841 133.769 317.136 133.969C317.739 134.483 318.207 135.136 318.498 135.872C318.79 136.608 318.898 137.404 318.811 138.191C319.886 138.607 320.761 139.418 321.26 140.458C321.758 141.497 321.842 142.688 321.494 143.787C322.389 143.979 323.219 144.398 323.906 145.003C324.592 145.607 325.112 146.378 325.416 147.241C325.501 147.635 325.676 148.003 325.927 148.317C326.318 148.621 326.803 148.777 327.298 148.757C328.619 148.841 329.814 149.899 331.034 149.326C332.412 148.679 333.952 148.463 335.454 148.704C335.764 148.778 336.083 148.806 336.401 148.788C336.672 148.741 336.934 148.65 337.177 148.519C337.726 148.201 338.32 147.966 338.939 147.823C339.251 147.759 339.574 147.785 339.87 147.9C340.166 148.015 340.423 148.213 340.609 148.471C341.05 148.004 341.292 147.405 341.68 146.907C341.852 146.639 342.094 146.425 342.381 146.289C342.667 146.152 342.986 146.097 343.302 146.131C342.896 145.77 343.302 145.051 343.835 144.919C344.368 144.787 344.915 144.981 345.456 144.981C346.862 144.981 347.942 143.694 349.308 143.359C350.564 143.055 352.238 143.421 352.881 142.297C353.11 141.901 353.155 141.363 353.542 141.121C353.804 140.99 354.103 140.954 354.388 141.02C355.281 141.139 356.149 141.403 356.957 141.799C358.279 146.951 357.583 152.3 356.578 157.522C356.098 160.003 355.34 162.012 353.754 163.995Z" fill="#0076FF"/>
<path opacity="0.1" d="M353.798 182.453L360.346 195.673C359.636 194.452 358.143 193.976 356.966 193.196C355.468 192.117 354.34 190.601 353.736 188.856C353.132 187.115 352.709 185.317 352.476 183.489C352.344 182.652 352.066 181.475 352.476 180.717C353.238 180.872 353.485 181.832 353.798 182.453Z" fill="black"/>
<path opacity="0.1" d="M372.636 193.65C374.112 195.113 375.923 196.188 377.549 197.484C381.347 200.506 384.053 204.657 386.697 208.729C387.443 209.8 388.07 210.949 388.565 212.157C388.256 212.426 387.794 212.157 387.49 211.879L382.343 207.358C381.712 206.842 381.138 206.26 380.629 205.622C379.748 204.424 379.342 202.921 378.531 201.656C377.721 200.392 376.54 199.453 375.407 198.471C374.275 197.488 368.798 192.87 370.12 191.09C371.076 191.566 371.864 192.888 372.636 193.65Z" fill="black"/>
<path d="M361.399 136.423C363.029 135.405 364.951 134.978 366.841 134.63C367.976 134.372 369.144 134.289 370.304 134.383C371.375 134.515 372.402 134.93 373.482 134.987C374.993 135.075 376.443 134.458 377.888 134.061C379.333 133.665 381.039 133.506 382.268 134.392C382.53 134.649 382.86 134.825 383.22 134.899C383.593 134.853 383.939 134.682 384.202 134.414C385.237 133.674 386.493 133.308 387.764 133.375C389.034 133.442 390.244 133.939 391.195 134.784C393.985 137.397 393.672 142.504 396.924 144.478C397.827 145.025 398.977 145.316 399.502 146.241C399.626 146.532 399.774 146.814 399.942 147.083C400.16 147.323 400.428 147.514 400.727 147.642C401.675 148.065 402.579 148.584 403.423 149.189C403.844 149.495 404.198 149.884 404.464 150.33C404.731 150.777 404.904 151.273 404.974 151.789C404.99 152.551 404.825 153.305 404.494 153.992C402.896 157.914 400.122 161.245 396.554 163.527C392.986 165.809 388.799 166.93 384.568 166.735C383.823 166.7 383.017 166.599 382.479 166.083C382.165 165.729 381.917 165.322 381.748 164.88C380.215 161.659 377.342 159.28 375.495 156.217C374.402 154.393 373.702 152.353 372.565 150.555C370.873 147.823 368.251 145.791 365.695 143.857C364.25 142.755 362.642 141.601 360.822 141.676C359.205 141.746 358.024 141.834 358.619 139.847C359.107 138.41 360.093 137.196 361.399 136.423Z" fill="#0076FF"/>
<path opacity="0.05" d="M361.399 136.423C363.029 135.405 364.951 134.978 366.841 134.63C367.976 134.372 369.144 134.289 370.304 134.383C371.375 134.515 372.402 134.93 373.482 134.987C374.993 135.075 376.443 134.458 377.888 134.061C379.333 133.665 381.039 133.506 382.268 134.392C382.53 134.649 382.86 134.825 383.22 134.899C383.593 134.853 383.939 134.682 384.202 134.414C385.237 133.674 386.493 133.308 387.764 133.375C389.034 133.442 390.244 133.939 391.195 134.784C393.985 137.397 393.672 142.504 396.924 144.478C397.827 145.025 398.977 145.316 399.502 146.241C399.626 146.532 399.774 146.814 399.942 147.083C400.16 147.323 400.428 147.514 400.727 147.642C401.675 148.065 402.579 148.584 403.423 149.189C403.844 149.495 404.198 149.884 404.464 150.33C404.731 150.777 404.904 151.273 404.974 151.789C404.99 152.551 404.825 153.305 404.494 153.992C402.896 157.914 400.122 161.245 396.554 163.527C392.986 165.809 388.799 166.93 384.568 166.735C383.823 166.7 383.017 166.599 382.479 166.083C382.165 165.729 381.917 165.322 381.748 164.88C380.215 161.659 377.342 159.28 375.495 156.217C374.402 154.393 373.702 152.353 372.565 150.555C370.873 147.823 368.251 145.791 365.695 143.857C364.25 142.755 362.642 141.601 360.822 141.676C359.205 141.746 358.024 141.834 358.619 139.847C359.107 138.41 360.093 137.196 361.399 136.423Z" fill="black"/>
<path d="M353.485 356.843C354.587 357.87 356.103 358.319 357.57 358.641C360.914 359.372 364.334 359.632 367.744 359.896L371.067 360.152C374.31 360.394 377.558 360.646 380.814 360.659C384.832 360.673 388.843 360.327 392.799 359.623C392.958 359.64 393.119 359.619 393.268 359.562C393.417 359.504 393.55 359.413 393.657 359.294C393.764 359.176 393.842 359.033 393.883 358.879C393.925 358.725 393.929 358.563 393.897 358.407C393.828 354.355 393.335 350.322 392.425 346.373C392.046 344.752 389.138 348.387 389.01 348.541C388.204 349.458 387.591 349.863 386.366 349.942C383.022 350.127 379.272 348.092 376.615 346.285C376.046 345.86 375.442 345.485 374.808 345.166C374.346 344.948 373.855 344.8 373.349 344.725C371.627 344.567 369.895 344.918 368.37 345.734C366.374 346.726 364.62 348.149 362.642 349.167C361.035 349.995 359.299 350.545 357.508 350.793C355.697 351.044 353.542 351.163 352.604 352.732C351.833 354.045 352.388 355.807 353.485 356.843Z" fill="#3F3D56"/>
<path d="M353.485 357.442C354.587 358.469 356.103 358.918 357.57 359.24C360.914 359.971 364.334 360.231 367.744 360.496L371.067 360.751C374.31 360.994 377.558 361.245 380.814 361.258C384.832 361.273 388.843 360.926 392.799 360.223C392.98 360.218 393.157 360.176 393.321 360.101C393.485 360.025 393.631 359.916 393.751 359.782C393.892 359.562 394.496 358.685 394.491 358.425C394.425 354.375 393.328 350.334 392.42 346.391C392.042 344.769 389.133 348.404 389.005 348.559C388.199 349.475 387.587 349.881 386.362 349.96C383.017 350.145 379.267 348.109 376.61 346.303C376.042 345.878 375.437 345.503 374.804 345.183C374.342 344.966 373.85 344.817 373.345 344.743C373.786 347.149 377.227 350.057 379.007 350.943C382.612 352.732 386.895 351.824 390.905 352.049C391.199 352.041 391.489 352.112 391.746 352.256C392.231 352.573 392.257 353.256 392.244 353.833C392.209 354.794 392.086 355.917 391.257 356.407C390.846 356.605 390.392 356.7 389.935 356.684C380.023 357.12 370.093 356.772 360.236 355.644C358.575 355.534 356.941 355.171 355.389 354.569C354.376 354.096 353.432 353.488 352.582 352.762C351.33 353.763 352.388 356.415 353.485 357.442Z" fill="#E8EAF2"/>
<path d="M361.765 115.18C361.822 116.753 360.751 119.803 363.69 118.952C365.453 118.441 365.938 116.366 368.163 116.828C370.388 117.291 370.899 120.032 371.653 121.825C372.266 123.251 373.217 124.506 374.424 125.482C375.631 126.458 377.057 127.125 378.58 127.426C379.207 127.573 379.86 127.573 380.488 127.426C381.924 127.016 382.744 125.535 383.33 124.165C383.835 123.004 384.255 121.808 384.586 120.587C384.81 119.72 384.957 118.836 385.026 117.943C385.073 117.339 385.073 116.732 385.026 116.128C384.758 112.554 382.726 109.293 380.118 106.826C377.509 104.358 374.35 102.582 371.225 100.824C370.204 100.186 369.1 99.6937 367.943 99.3611C366.803 99.1311 365.634 99.0835 364.479 99.2201C362.958 99.2814 361.462 99.6328 360.073 100.256C359.503 100.537 358.98 100.904 358.522 101.344C357.876 101.95 357.417 102.728 357.2 103.587C356.636 105.9 358.107 107.993 359.306 109.804C360.368 111.435 361.685 113.158 361.765 115.18Z" fill="#3F3D56"/>
<path opacity="0.1" d="M312.276 148.929C312.906 147.347 315.55 142.967 314.783 141.46C313.991 142.585 313.318 143.788 312.774 145.052C312.276 146.277 312.682 147.92 312.276 148.929Z" fill="black"/>
<path opacity="0.1" d="M359.24 109.813C358.041 107.984 356.565 105.905 357.129 103.596C357.409 102.581 358.009 101.683 358.839 101.035C358.643 101.373 358.495 101.737 358.398 102.115C357.834 104.424 359.31 106.521 360.509 108.332C361.571 109.954 362.889 111.677 362.968 113.7C363.025 115.268 361.95 118.322 364.893 117.471C366.656 116.965 367.141 114.885 369.366 115.352C371.591 115.819 372.098 118.551 372.852 120.344C373.468 121.772 374.422 123.027 375.632 124.003C376.842 124.979 378.271 125.645 379.796 125.945C380.424 126.093 381.077 126.093 381.704 125.945C382.021 125.85 382.319 125.701 382.585 125.504C382.137 126.403 381.356 127.092 380.409 127.426C379.781 127.573 379.128 127.573 378.501 127.426C376.98 127.122 375.556 126.454 374.351 125.478C373.146 124.502 372.196 123.249 371.582 121.825C370.829 120.032 370.34 117.3 368.097 116.828C365.854 116.357 365.378 118.445 363.624 118.952C360.681 119.802 361.756 116.749 361.699 115.18C361.624 113.158 360.302 111.435 359.24 109.813Z" fill="black"/>
<path opacity="0.1" d="M358.588 106.689C358.857 107.134 359.151 107.564 359.469 107.976C360.092 108.758 360.789 109.48 361.549 110.13C361.99 110.523 362.47 110.888 362.955 111.232C363.858 111.866 364.806 112.433 365.792 112.929C368.67 114.378 371.781 115.286 374.878 116.18L380.951 117.943C381.695 118.507 383.061 119.525 384.568 120.587C384.793 119.72 384.94 118.836 385.009 117.943C385.055 117.339 385.055 116.732 385.009 116.128C384.74 112.554 382.709 109.293 380.1 106.826C377.491 104.358 374.332 102.582 371.208 100.824C370.187 100.186 369.082 99.6937 367.925 99.3611C366.785 99.1311 365.616 99.0835 364.462 99.2201C362.94 99.2814 361.445 99.6328 360.055 100.256C359.486 100.537 358.963 100.904 358.504 101.344C358.159 101.849 357.895 102.405 357.724 102.992C357.38 104.243 357.909 105.583 358.588 106.689Z" fill="black"/>
<path d="M358.588 106.279C358.857 106.724 359.151 107.154 359.469 107.566C360.092 108.348 360.789 109.07 361.549 109.721C361.99 110.113 362.47 110.478 362.955 110.822C363.858 111.456 364.806 112.023 365.792 112.519C368.67 113.968 371.781 114.876 374.878 115.775L380.95 117.538C383.07 119.142 390.16 124.394 391.354 123.737C392.76 122.966 385.062 117.516 385.062 117.516L384.705 117.784C385.833 117.075 386.423 115.431 386.679 114.012C387.119 111.47 387.34 108.826 386.736 106.314C386.132 103.803 384.625 101.41 382.33 100.234C381.307 99.7091 380.069 99.3522 379.333 98.5458C379.222 98.4266 379.124 98.295 379.042 98.1537C379 98.0871 378.962 98.0179 378.928 97.9466C378.848 97.7249 378.74 97.5145 378.606 97.3208C378.166 96.8317 377.416 96.9771 376.778 97.0565L376.575 97.0785C376.46 97.0785 376.346 97.0785 376.231 97.0785C373.949 97.1314 371.737 95.8579 369.428 95.8579C366.894 95.8579 364.744 97.3208 362.514 98.3211C362.073 98.5238 361.633 98.7089 361.236 98.8984C359.628 99.6474 358.416 100.445 357.751 102.578C357.38 103.834 357.909 105.173 358.588 106.279Z" fill="#0076FF"/>
<path opacity="0.1" d="M376.244 97.0914C376.12 97.3041 376.076 97.554 376.12 97.7962C376.163 98.0385 376.292 98.2573 376.482 98.4134C376.765 98.6138 377.097 98.7327 377.443 98.7571C377.69 98.7895 377.938 98.8086 378.188 98.8144C378.526 98.8396 378.865 98.7806 379.175 98.6425C379.236 98.6126 379.294 98.5756 379.346 98.5324C379.235 98.4131 379.137 98.2815 379.056 98.1402C378.998 98.1842 378.941 98.1754 378.712 98.1402C378.295 98.1184 377.883 98.0474 377.483 97.9287C377.269 97.8758 377.075 97.7658 376.919 97.6105C376.764 97.4552 376.654 97.2605 376.601 97.0474L376.244 97.0914Z" fill="black"/>
<path opacity="0.1" d="M384.925 117.454C384.605 117.653 384.248 117.787 383.876 117.846C383.609 117.916 383.336 117.961 383.061 117.978C382.364 117.947 381.684 117.756 381.074 117.418L384.925 117.454Z" fill="black"/>
<path d="M194.055 163.95L194.285 163.889L194.879 165.162L199.784 175.738C199.572 176.004 199.377 176.283 199.202 176.575C199.14 176.676 199.079 176.778 199.021 176.897C198.964 177.016 198.902 177.135 198.85 177.258C198.827 177.297 198.81 177.338 198.797 177.381C198.783 177.408 198.788 177.408 198.761 177.469C198.735 177.531 198.713 177.597 198.691 177.659C198.658 177.703 198.64 177.745 198.604 177.786L198.598 177.804L198.576 177.857L198.528 178.031V178.047V178.108L198.501 178.241C198.501 178.244 198.501 178.248 198.501 178.252C198.501 178.254 198.501 178.256 198.501 178.258C198.501 178.26 198.501 178.262 198.501 178.264C198.501 178.268 198.501 178.272 198.501 178.276V178.28V178.293V178.298V178.315C198.504 178.327 198.504 178.339 198.501 178.351V178.386V178.412V178.47C198.49 178.616 198.49 178.764 198.501 178.91V179.021C198.255 178.95 197.982 178.69 197.761 178.047C197.689 177.835 197.652 177.613 197.651 177.39C197.609 176.013 198.771 174.559 198.954 174.329C198.963 174.319 198.969 174.311 198.973 174.306L194.655 165.206L194.055 163.95Z" fill="url(#paint22_linear)"/>
<path d="M199.634 180.395H199.66C199.742 180.363 199.818 180.317 199.885 180.259L199.874 180.276C199.878 180.273 199.881 180.27 199.885 180.268L199.819 180.373L199.779 180.435C199.758 180.467 199.739 180.501 199.722 180.536C199.681 180.599 199.647 180.665 199.611 180.734C199.604 180.748 199.597 180.761 199.59 180.774C199.507 180.941 199.443 181.117 199.4 181.299C199.4 181.303 199.399 181.307 199.399 181.312C199.399 181.316 199.4 181.321 199.4 181.325C199.4 181.326 199.4 181.327 199.4 181.327C199.4 181.328 199.4 181.329 199.4 181.329C199.4 181.33 199.4 181.331 199.4 181.332C199.4 181.332 199.4 181.333 199.4 181.334C199.399 181.343 199.399 181.352 199.399 181.361C199.4 181.364 199.4 181.366 199.4 181.369C199.402 181.373 199.403 181.378 199.403 181.382C199.403 181.383 199.403 181.383 199.403 181.384C199.403 181.388 199.402 181.392 199.4 181.396C199.29 181.231 199.147 181.09 198.982 180.981C198.85 180.903 198.742 180.789 198.671 180.653C198.6 180.517 198.569 180.363 198.581 180.21C198.585 180.034 198.618 179.86 198.678 179.695C198.752 179.88 198.86 180.05 198.995 180.197L199.061 180.259C199.115 180.305 199.176 180.343 199.242 180.369C199.267 180.38 199.294 180.388 199.321 180.395H199.365C199.453 180.418 199.546 180.418 199.634 180.395Z" fill="url(#paint23_linear)"/>
<path d="M216.581 331.51C216.581 331.51 223.191 332.321 226.377 331.22C229.563 330.118 225.39 335.956 221.058 337.34C217.996 338.233 214.84 338.768 211.655 338.935L206.561 334.145L201.154 334.56L202.097 339.847L200.418 340.006L199.766 333.07L216.581 331.51Z" fill="#444053"/>
<path opacity="0.1" d="M216.581 331.51C216.581 331.51 223.191 332.321 226.377 331.22C229.563 330.118 225.39 335.956 221.058 337.34C217.996 338.233 214.84 338.768 211.655 338.935L206.561 334.145L201.154 334.56L202.097 339.847L200.418 340.006L199.766 333.07L216.581 331.51Z" fill="black"/>
<path d="M226.104 343.619C226.104 343.619 234.013 345.351 238.001 344.377C241.989 343.403 236.269 350.013 230.849 351.203C225.429 352.392 219.251 352.084 219.251 352.084L213.642 345.673L207.032 345.562L207.574 352.106H205.517V343.619H226.104Z" fill="#444053"/>
<path opacity="0.1" d="M226.104 343.619C226.104 343.619 234.013 345.351 238.001 344.377C241.989 343.403 236.269 350.013 230.849 351.203C225.429 352.392 219.251 352.084 219.251 352.084L213.642 345.673L207.032 345.562L207.574 352.106H205.517V343.619H226.104Z" fill="black"/>
<path d="M196.845 193.099C196.845 193.099 183.299 208.16 191.425 225.174C191.425 225.174 191.865 228.21 191.535 228.752C191.204 229.294 192.835 236.335 192.835 236.335C192.835 236.335 193.055 249.114 192.835 251.291C192.615 253.467 192.394 254.648 192.394 254.648C192.394 254.648 189.367 278.254 190.341 285.304C191.315 292.354 191.751 304.917 191.751 304.917L195.761 338.728L216.568 334.828L207.138 288.446L206.812 280.21C206.812 280.21 210.716 270.133 208.98 265.039C207.244 259.945 209.421 195.034 209.421 195.034L196.845 193.099Z" fill="#303D5C"/>
<path opacity="0.05" d="M196.845 193.099C196.845 193.099 183.299 208.16 191.425 225.174C191.425 225.174 191.865 228.21 191.535 228.752C191.204 229.294 192.835 236.335 192.835 236.335C192.835 236.335 193.055 249.114 192.835 251.291C192.615 253.467 192.394 254.648 192.394 254.648C192.394 254.648 189.367 278.254 190.341 285.304C191.315 292.354 191.751 304.917 191.751 304.917L195.761 338.728L216.568 334.828L207.138 288.446L206.812 280.21C206.812 280.21 210.716 270.133 208.98 265.039C207.244 259.945 209.421 195.034 209.421 195.034L196.845 193.099Z" fill="black"/>
<path d="M206.812 265.916C209.196 270.467 207.693 281.519 207.693 281.519C204.552 284.229 206.283 307.852 206.283 307.852C206.283 307.852 204.115 331.153 202.71 333.85C201.304 336.546 201.516 347.721 201.516 347.721C217.445 350.647 227.849 344.364 227.849 344.364C227.849 344.364 222.755 332.766 222.649 332.228C222.587 331.924 221.913 332.748 221.71 332.986C221.816 332.841 222.094 332.462 222.649 331.664C224.817 328.628 222.649 322.776 222.649 322.776C222.649 322.776 225.359 303.921 224.059 302.185C222.759 300.449 224.275 294.06 225.033 292.544C225.791 291.028 226.765 287.45 226.765 285.934C226.828 284.756 227.047 283.591 227.417 282.471C230.774 277.698 230.127 269.789 230.127 269.789C230.127 269.789 229.911 258.411 231.858 249.418C233.806 240.424 229.426 214.955 229.426 214.955C229.426 214.955 230.885 209.971 229.801 208.129C229.311 207.301 229.36 205.349 229.589 203.459C229.853 201.145 230.343 198.92 230.343 198.92L200.78 193.672C200.158 194.707 199.59 195.712 199.066 196.677C189.288 214.743 195.88 221.459 195.88 221.459L202.155 240.799C202.155 240.799 204.419 261.368 206.812 265.916Z" fill="#303D5C"/>
<path d="M253.736 124.5L257.962 128.087C257.962 128.087 258.791 127.426 259.901 126.434C262.545 124.046 266.828 119.723 265.224 117.89C263.021 115.387 260.817 117.009 260.681 117.123C260.919 116.872 265.823 111.615 263.814 112.038C261.805 112.461 257.962 117.026 257.962 117.026L254.926 122.389L253.736 124.5Z" fill="#EFB7B9"/>
<path d="M197.061 183.021L202.044 184.537L198.255 191.147L193.919 185.511L197.061 183.021Z" fill="#EFB7B9"/>
<path d="M208.764 120.926C216.605 120.926 222.962 114.569 222.962 106.728C222.962 98.8872 216.605 92.5308 208.764 92.5308C200.923 92.5308 194.567 98.8872 194.567 106.728C194.567 114.569 200.923 120.926 208.764 120.926Z" fill="#EFB7B9"/>
<path d="M217.11 111.933C217.11 111.933 204.212 132.401 216.458 134.163C228.703 135.926 199.987 148.361 199.987 148.361L189.257 137.525C189.257 137.525 200.418 118.234 198.687 110.866C196.955 103.499 217.11 111.933 217.11 111.933Z" fill="#EFB7B9"/>
<path opacity="0.1" d="M199.052 196.708C201.917 197.577 204.836 198.252 207.79 198.731C207.79 198.731 223.759 205.821 229.576 203.49C229.84 201.176 230.329 198.951 230.329 198.951L200.767 193.703C200.145 194.739 199.572 195.743 199.052 196.708Z" fill="black"/>
<path d="M184.383 143.139L187.27 149.109L190.53 155.834L190.971 156.794L194.836 165.167L199.749 175.777C199.749 175.777 198.013 177.835 198.555 179.461C199.061 180.981 199.854 180.32 199.956 180.228C199.863 180.356 198.815 181.766 199.749 182.387C200.683 183.008 200.396 184.445 200.396 184.445C200.396 184.445 196.387 191.054 195.629 193.438C194.871 195.822 207.768 197.884 207.768 197.884C207.768 197.884 226.082 206.01 230.634 202C235.185 197.99 230.634 179.135 230.634 179.135C230.634 179.135 230.634 168.3 229.439 167.326C228.245 166.352 228.814 158.839 228.814 158.839C231.955 153.111 229.788 149.845 229.788 149.845L230.669 135.11C230.669 135.11 229.259 133.59 228.175 133.484C227.49 133.419 226.801 133.419 226.117 133.484C226.117 133.484 225.544 133.29 224.72 133.044C222.984 132.55 220.102 131.867 219.071 132.383C217.555 133.14 207.804 131.188 207.804 131.188C203.601 130.566 199.367 130.169 195.122 129.999C193.672 129.904 192.217 130.062 190.821 130.466C187.296 131.554 186.67 134.114 186.67 134.114C186.67 134.114 187.111 136.282 185.37 139.098C183.63 141.914 184.383 143.139 184.383 143.139Z" fill="#0076FF"/>
<path opacity="0.1" d="M253.736 124.5L257.962 128.087C257.962 128.087 258.791 127.426 259.901 126.434C260.236 122.777 257.12 122.292 254.926 122.389L253.736 124.5Z" fill="black"/>
<path d="M228.814 135.013L230.655 135.124C230.655 135.124 234.987 135.661 236.384 134.361C237.781 133.061 242.778 132.63 242.778 132.63C242.778 132.63 244.188 129.809 245.703 128.946C247.219 128.082 250.907 126.452 250.991 125.584C251.075 124.716 252.401 123.094 252.401 123.094C252.401 123.094 260.527 121.142 259.337 127.536C258.147 133.929 251.568 139.451 251.568 139.451C251.568 139.451 250.811 143.029 248.316 143.897C245.822 144.765 229.677 152.348 227.077 150.396C224.478 148.444 228.814 135.013 228.814 135.013Z" fill="#0076FF"/>
<path opacity="0.1" d="M185.357 139.094C187.089 136.278 186.657 134.11 186.657 134.11C186.657 134.11 187.283 131.55 190.808 130.462C191.496 130.253 192.203 130.114 192.919 130.047C189.446 131.149 188.825 133.678 188.825 133.678C188.825 133.678 189.266 135.846 187.525 138.662C185.785 141.478 186.547 142.672 186.547 142.672L189.438 148.643L192.694 155.362L193.161 156.327L197.026 164.678L201.939 175.288C201.939 175.288 200.203 177.351 200.745 178.977C201.251 180.497 202.044 179.831 202.146 179.743C202.053 179.867 201.005 181.281 201.939 181.902C202.873 182.524 202.586 183.96 202.586 183.96C202.586 183.96 198.577 190.57 197.819 192.954C197.061 195.338 209.958 197.396 209.958 197.396C209.958 197.396 222.676 203.04 229.55 202.6C223.707 204.891 207.791 197.832 207.791 197.832C207.791 197.832 194.893 195.77 195.651 193.386C196.409 191.002 200.419 184.396 200.419 184.396C200.419 184.396 200.745 182.986 199.771 182.339C198.797 181.691 199.885 180.307 199.978 180.18C199.877 180.272 199.097 180.933 198.577 179.413C198.035 177.787 199.771 175.729 199.771 175.729L194.858 165.114L190.993 156.742L190.552 155.781L187.292 149.057L184.405 143.086C184.405 143.086 183.621 141.914 185.357 139.094Z" fill="black"/>
<path d="M186.353 141.513L184.405 143.139C184.052 144.208 183.501 145.201 182.779 146.065C181.695 147.259 178.77 159.068 178.77 159.068C178.893 159.341 178.957 159.637 178.957 159.937C178.957 160.236 178.893 160.532 178.77 160.805C178.329 161.686 179.651 162.973 179.651 162.973C179.651 162.973 180.299 162.757 179.21 163.946C178.122 165.136 180.188 166.555 180.188 166.555C180.188 166.555 189.072 181.718 190.914 183.344C192.756 184.97 194.598 189.195 194.598 189.195C194.598 189.195 198.458 183.141 199.365 183.026L195.576 174.469C195.576 174.469 192.972 162.545 191.024 160.368C189.076 158.192 191.998 150.718 191.998 150.718L186.353 141.513Z" fill="#0076FF"/>
<path opacity="0.1" d="M185.084 163.62C186.714 165.577 189.574 165.991 192.103 165.705C192.474 165.66 192.848 165.603 193.214 165.533C193.768 165.434 194.317 165.306 194.857 165.149C196.794 164.592 198.617 163.697 200.242 162.505C200.597 162.199 201.007 161.963 201.449 161.809C202.463 161.554 203.468 162.307 204.018 163.188C204.569 164.07 204.829 165.11 205.393 165.982C206.504 167.714 208.654 168.547 210.716 168.595C212.778 168.644 214.779 168.027 216.744 167.414C215.154 165.458 213.523 163.422 212.875 160.985C212.515 159.396 212.413 157.76 212.571 156.138C213.038 148.471 215.7 140.39 221.953 135.921C223.037 135.15 224.345 134.238 224.707 133.066C222.971 132.572 220.089 131.889 219.058 132.405C217.542 133.163 207.79 131.211 207.79 131.211C203.587 130.589 199.354 130.192 195.109 130.021C193.659 129.927 192.204 130.085 190.808 130.488C191.341 133.745 191.804 136.983 191.165 140.182C190.721 142.176 189.999 144.097 189.019 145.889C188.464 146.968 187.864 148.03 187.256 149.097C185.608 152.062 184.035 155.037 183.731 158.35C183.603 160.223 183.903 162.201 185.084 163.62Z" fill="black"/>
<path opacity="0.1" d="M206.512 178.867C205.666 178.757 204.812 178.47 203.974 178.646C203.262 178.859 202.611 179.238 202.075 179.752L207.645 179.783C209.077 179.783 211.236 179.871 212.333 178.858C211.329 177.862 207.945 179.052 206.512 178.867Z" fill="black"/>
<path d="M225.817 105.081C226.663 106.245 227.195 107.606 227.364 109.035C227.533 110.464 227.333 111.912 226.782 113.241C225.901 115.334 224.169 116.974 223.116 118.992C222.319 120.558 221.933 122.3 221.995 124.056C222.057 125.812 222.564 127.523 223.469 129.03C223.879 129.566 224.179 130.178 224.35 130.832C224.601 132.484 222.891 133.67 221.53 134.643C215.273 139.103 212.615 147.189 212.148 154.86C211.988 156.481 212.089 158.118 212.448 159.707C213.096 162.144 214.731 164.18 216.321 166.136C214.356 166.749 212.356 167.366 210.289 167.317C208.222 167.269 206.081 166.436 204.966 164.704C204.402 163.823 204.137 162.792 203.591 161.91C203.045 161.029 202.036 160.28 201.031 160.531C200.586 160.68 200.174 160.915 199.819 161.223C197.428 162.977 194.622 164.081 191.676 164.427C189.147 164.717 186.287 164.299 184.661 162.342C183.48 160.919 183.176 158.945 183.339 157.103C183.903 150.542 189.46 145.382 190.746 138.922C191.786 133.687 189.9 128.347 189.557 123.032C189.041 115.158 191.901 107.495 194.717 100.119C195.33 98.2911 196.158 96.5427 197.184 94.9105C199.542 91.4558 203.618 89.3848 207.76 88.9706C209.296 88.7575 210.861 88.9084 212.329 89.4112C213.81 89.9841 215.043 91.0504 216.246 92.0948C218.934 94.4258 221.697 96.8537 223.244 100.062C223.874 101.384 224.288 102.78 225.006 104.054L225.817 105.081Z" fill="#3F3D56"/>
<g opacity="0.1">
<path opacity="0.1" d="M223.261 102.203C222.556 100.93 222.146 99.5195 221.499 98.2108C220.897 96.9903 220.142 95.8516 219.251 94.8223C220.867 96.3254 222.209 98.0983 223.217 100.062C223.83 101.331 224.24 102.705 224.905 103.944L224.05 103.221C224.274 103.518 224.474 103.832 224.649 104.16C224.107 103.567 223.641 102.91 223.261 102.203Z" fill="black"/>
<path opacity="0.1" d="M189.931 162.549C192.877 162.208 195.684 161.106 198.074 159.35C198.43 159.044 198.841 158.809 199.286 158.658C200.295 158.403 201.3 159.156 201.85 160.038C201.965 160.223 202.066 160.421 202.163 160.619C201.806 160.456 201.404 160.418 201.022 160.509C200.577 160.658 200.165 160.893 199.81 161.201C197.419 162.955 194.613 164.059 191.667 164.404C189.138 164.695 186.278 164.277 184.652 162.32C184.449 162.068 184.269 161.798 184.115 161.514C185.754 162.567 187.944 162.778 189.931 162.549Z" fill="black"/>
<path opacity="0.1" d="M208.548 165.449C210.606 165.497 212.611 164.881 214.576 164.268C212.985 162.312 211.355 160.276 210.707 157.839C210.347 156.25 210.244 154.613 210.403 152.992C210.87 145.32 213.532 137.234 219.789 132.775C221.151 131.801 222.873 130.616 222.609 128.959C222.436 128.308 222.136 127.697 221.728 127.161C220.822 125.656 220.314 123.944 220.252 122.189C220.19 120.433 220.575 118.69 221.371 117.123C222.428 115.105 224.147 113.466 225.041 111.369C225.518 110.213 225.732 108.966 225.668 107.718C225.604 106.47 225.263 105.252 224.671 104.151C224.969 104.465 225.287 104.759 225.623 105.032C225.864 105.369 226.126 105.69 226.407 105.993C227 107.094 227.34 108.314 227.403 109.563C227.466 110.812 227.251 112.059 226.773 113.215C225.892 115.308 224.16 116.947 223.107 118.965C222.31 120.531 221.924 122.274 221.986 124.03C222.048 125.786 222.555 127.497 223.46 129.003C223.87 129.539 224.17 130.152 224.341 130.805C224.592 132.458 222.882 133.643 221.521 134.617C215.264 139.076 212.606 147.162 212.139 154.834C211.979 156.455 212.08 158.092 212.439 159.681C213.087 162.118 214.722 164.153 216.312 166.11C214.347 166.722 212.346 167.339 210.28 167.291C208.213 167.242 206.072 166.41 204.957 164.678C204.882 164.563 204.816 164.444 204.75 164.325C205.89 165.039 207.203 165.427 208.548 165.449Z" fill="black"/>
</g>
<path opacity="0.2" d="M143.333 65.2329V74.4864H103.155C104.38 72.7885 105.631 71.114 106.909 69.4631C107.085 69.234 107.262 69.0224 107.447 68.7801L109.328 66.4138L109.588 66.0922L110.271 65.2593L143.333 65.2329Z" fill="#0076FF"/>
<path opacity="0.2" d="M226.465 65.2329H184.247V74.4776H226.465V65.2329Z" fill="#0076FF"/>
<path opacity="0.2" d="M323.429 65.2329H281.211V74.4776H323.429V65.2329Z" fill="#0076FF"/>
<path opacity="0.2" d="M405.437 65.2329H363.219V74.4776H405.437V65.2329Z" fill="#0076FF"/>
</g>
<defs>
<linearGradient id="paint0_linear" x1="97.5324" y1="114.889" x2="97.5324" y2="95.2102" gradientUnits="userSpaceOnUse">
<stop stop-color="#808080" stop-opacity="0.25"/>
<stop offset="0.54" stop-color="#808080" stop-opacity="0.12"/>
<stop offset="1" stop-color="#808080" stop-opacity="0.1"/>
</linearGradient>
<linearGradient id="paint1_linear" x1="8466.12" y1="4952.53" x2="8466.12" y2="4073.46" gradientUnits="userSpaceOnUse">
<stop stop-color="#808080" stop-opacity="0.25"/>
<stop offset="0.54" stop-color="#808080" stop-opacity="0.12"/>
<stop offset="1" stop-color="#808080" stop-opacity="0.1"/>
</linearGradient>
<linearGradient id="paint2_linear" x1="12793" y1="6697.12" x2="12793" y2="5818.05" gradientUnits="userSpaceOnUse">
<stop stop-color="#808080" stop-opacity="0.25"/>
<stop offset="0.54" stop-color="#808080" stop-opacity="0.12"/>
<stop offset="1" stop-color="#808080" stop-opacity="0.1"/>
</linearGradient>
<linearGradient id="paint3_linear" x1="17208" y1="7292.07" x2="17208" y2="6413.2" gradientUnits="userSpaceOnUse">
<stop stop-color="#808080" stop-opacity="0.25"/>
<stop offset="0.54" stop-color="#808080" stop-opacity="0.12"/>
<stop offset="1" stop-color="#808080" stop-opacity="0.1"/>
</linearGradient>
<linearGradient id="paint4_linear" x1="18391.2" y1="7873.74" x2="18391.2" y2="6994.86" gradientUnits="userSpaceOnUse">
<stop stop-color="#808080" stop-opacity="0.25"/>
<stop offset="0.54" stop-color="#808080" stop-opacity="0.12"/>
<stop offset="1" stop-color="#808080" stop-opacity="0.1"/>
</linearGradient>
<linearGradient id="paint5_linear" x1="19874.6" y1="6319.68" x2="19874.6" y2="5440.61" gradientUnits="userSpaceOnUse">
<stop stop-color="#808080" stop-opacity="0.25"/>
<stop offset="0.54" stop-color="#808080" stop-opacity="0.12"/>
<stop offset="1" stop-color="#808080" stop-opacity="0.1"/>
</linearGradient>
<linearGradient id="paint6_linear" x1="19574.3" y1="7580.19" x2="19574.3" y2="6701.32" gradientUnits="userSpaceOnUse">
<stop stop-color="#808080" stop-opacity="0.25"/>
<stop offset="0.54" stop-color="#808080" stop-opacity="0.12"/>
<stop offset="1" stop-color="#808080" stop-opacity="0.1"/>
</linearGradient>
<linearGradient id="paint7_linear" x1="9773.03" y1="4952.53" x2="9773.03" y2="4073.46" gradientUnits="userSpaceOnUse">
<stop stop-color="#808080" stop-opacity="0.25"/>
<stop offset="0.54" stop-color="#808080" stop-opacity="0.12"/>
<stop offset="1" stop-color="#808080" stop-opacity="0.1"/>
</linearGradient>
<linearGradient id="paint8_linear" x1="5296.58" y1="7130.9" x2="5296.58" y2="6251.83" gradientUnits="userSpaceOnUse">
<stop stop-color="#808080" stop-opacity="0.25"/>
<stop offset="0.54" stop-color="#808080" stop-opacity="0.12"/>
<stop offset="1" stop-color="#808080" stop-opacity="0.1"/>
</linearGradient>
<linearGradient id="paint9_linear" x1="9157.46" y1="6247.65" x2="9157.46" y2="5368.78" gradientUnits="userSpaceOnUse">
<stop stop-color="#808080" stop-opacity="0.25"/>
<stop offset="0.54" stop-color="#808080" stop-opacity="0.12"/>
<stop offset="1" stop-color="#808080" stop-opacity="0.1"/>
</linearGradient>
<linearGradient id="paint10_linear" x1="14150.6" y1="5710.65" x2="14150.6" y2="4831.78" gradientUnits="userSpaceOnUse">
<stop stop-color="#808080" stop-opacity="0.25"/>
<stop offset="0.54" stop-color="#808080" stop-opacity="0.12"/>
<stop offset="1" stop-color="#808080" stop-opacity="0.1"/>
</linearGradient>
<linearGradient id="paint11_linear" x1="19205.5" y1="5080.5" x2="19205.5" y2="4201.63" gradientUnits="userSpaceOnUse">
<stop stop-color="#808080" stop-opacity="0.25"/>
<stop offset="0.54" stop-color="#808080" stop-opacity="0.12"/>
<stop offset="1" stop-color="#808080" stop-opacity="0.1"/>
</linearGradient>
<linearGradient id="paint12_linear" x1="15414.6" y1="4952.53" x2="15414.6" y2="4073.46" gradientUnits="userSpaceOnUse">
<stop stop-color="#808080" stop-opacity="0.25"/>
<stop offset="0.54" stop-color="#808080" stop-opacity="0.12"/>
<stop offset="1" stop-color="#808080" stop-opacity="0.1"/>
</linearGradient>
<linearGradient id="paint13_linear" x1="15360.3" y1="6697.12" x2="15360.3" y2="5818.05" gradientUnits="userSpaceOnUse">
<stop stop-color="#808080" stop-opacity="0.25"/>
<stop offset="0.54" stop-color="#808080" stop-opacity="0.12"/>
<stop offset="1" stop-color="#808080" stop-opacity="0.1"/>
</linearGradient>
<linearGradient id="paint14_linear" x1="11059.4" y1="5386.32" x2="11059.4" y2="4507.45" gradientUnits="userSpaceOnUse">
<stop stop-color="#808080" stop-opacity="0.25"/>
<stop offset="0.54" stop-color="#808080" stop-opacity="0.12"/>
<stop offset="1" stop-color="#808080" stop-opacity="0.1"/>
</linearGradient>
<linearGradient id="paint15_linear" x1="5969.23" y1="5675.44" x2="5969.23" y2="4796.57" gradientUnits="userSpaceOnUse">
<stop stop-color="#808080" stop-opacity="0.25"/>
<stop offset="0.54" stop-color="#808080" stop-opacity="0.12"/>
<stop offset="1" stop-color="#808080" stop-opacity="0.1"/>
</linearGradient>
<linearGradient id="paint16_linear" x1="6448.14" y1="6697.12" x2="6448.14" y2="5818.05" gradientUnits="userSpaceOnUse">
<stop stop-color="#808080" stop-opacity="0.25"/>
<stop offset="0.54" stop-color="#808080" stop-opacity="0.12"/>
<stop offset="1" stop-color="#808080" stop-opacity="0.1"/>
</linearGradient>
<linearGradient id="paint17_linear" x1="10421.8" y1="6842.79" x2="10421.8" y2="5963.92" gradientUnits="userSpaceOnUse">
<stop stop-color="#808080" stop-opacity="0.25"/>
<stop offset="0.54" stop-color="#808080" stop-opacity="0.12"/>
<stop offset="1" stop-color="#808080" stop-opacity="0.1"/>
</linearGradient>
<linearGradient id="paint18_linear" x1="17433.1" y1="5080.5" x2="17433.1" y2="4201.63" gradientUnits="userSpaceOnUse">
<stop stop-color="#808080" stop-opacity="0.25"/>
<stop offset="0.54" stop-color="#808080" stop-opacity="0.12"/>
<stop offset="1" stop-color="#808080" stop-opacity="0.1"/>
</linearGradient>
<linearGradient id="paint19_linear" x1="18280.9" y1="6319.68" x2="18280.9" y2="5440.61" gradientUnits="userSpaceOnUse">
<stop stop-color="#808080" stop-opacity="0.25"/>
<stop offset="0.54" stop-color="#808080" stop-opacity="0.12"/>
<stop offset="1" stop-color="#808080" stop-opacity="0.1"/>
</linearGradient>
<linearGradient id="paint20_linear" x1="12876.8" y1="4952.53" x2="12876.8" y2="4073.46" gradientUnits="userSpaceOnUse">
<stop stop-color="#808080" stop-opacity="0.25"/>
<stop offset="0.54" stop-color="#808080" stop-opacity="0.12"/>
<stop offset="1" stop-color="#808080" stop-opacity="0.1"/>
</linearGradient>
<linearGradient id="paint21_linear" x1="14042.2" y1="7580.19" x2="14042.2" y2="6701.32" gradientUnits="userSpaceOnUse">
<stop stop-color="#808080" stop-opacity="0.25"/>
<stop offset="0.54" stop-color="#808080" stop-opacity="0.12"/>
<stop offset="1" stop-color="#808080" stop-opacity="0.1"/>
</linearGradient>
<linearGradient id="paint22_linear" x1="-42812" y1="219985" x2="-42812" y2="60574.9" gradientUnits="userSpaceOnUse">
<stop stop-color="#808080" stop-opacity="0.25"/>
<stop offset="0.54" stop-color="#808080" stop-opacity="0.12"/>
<stop offset="1" stop-color="#808080" stop-opacity="0.1"/>
</linearGradient>
<linearGradient id="paint23_linear" x1="-42812" y1="219985" x2="-42812" y2="60574.9" gradientUnits="userSpaceOnUse">
<stop stop-color="#808080" stop-opacity="0.25"/>
<stop offset="0.54" stop-color="#808080" stop-opacity="0.12"/>
<stop offset="1" stop-color="#808080" stop-opacity="0.1"/>
</linearGradient>
<clipPath id="clip0">
<rect width="519" height="368.793" fill="white"/>
</clipPath>
</defs>
</svg>
