<svg width="519" height="316" viewBox="0 0 519 316" fill="none" xmlns="http://www.w3.org/2000/svg">
<path d="M428.287 210.381C452.344 210.381 475.415 219.963 492.427 237.02C509.438 254.076 518.997 277.21 519 301.333V302.741H337.575V301.333C337.578 277.21 347.136 254.076 364.148 237.02C381.159 219.963 404.231 210.381 428.287 210.381Z" fill="#003472"/>
<path d="M90.7127 210.381C114.769 210.381 137.841 219.963 154.852 237.02C171.864 254.076 181.422 277.21 181.425 301.333V302.741H0V301.333C0 277.208 9.5572 254.072 26.5691 237.013C43.581 219.954 66.6542 210.37 90.7127 210.37V210.381Z" fill="#003472"/>
<path d="M263.117 52.0039H234.64V79.6533H263.117V52.0039Z" fill="url(#paint0_linear)"/>
<path d="M262.629 52.4771H235.128V79.1746H262.629V52.4771Z" fill="#F5F5F5"/>
<path d="M302.009 75.8345H273.531V103.484H302.009V75.8345Z" fill="url(#paint1_linear)"/>
<path d="M301.52 76.313H274.02V103.011H301.52V76.313Z" fill="#F5F5F5"/>
<path d="M345.225 45.5039H316.747V73.1533H345.225V45.5039Z" fill="url(#paint2_linear)"/>
<path d="M344.736 45.9771H317.236V72.6746H344.736V45.9771Z" fill="#F5F5F5"/>
<path d="M301.407 0.118164H272.93V27.7676H301.407V0.118164Z" fill="url(#paint3_linear)"/>
<path d="M300.925 0.597168H273.424V27.2947H300.925V0.597168Z" fill="#7CFCFF"/>
<path d="M258.315 0H229.837V27.6494H258.315V0Z" fill="url(#paint4_linear)"/>
<path d="M257.826 0.478516H230.326V27.1761H257.826V0.478516Z" fill="#FFFFA5"/>
<path d="M219.418 23.8364H190.94V51.4859H219.418V23.8364Z" fill="url(#paint5_linear)"/>
<path d="M218.935 24.3096H191.435V51.0071H218.935V24.3096Z" fill="#FF69B4"/>
<path d="M180.431 300.348L172.438 295.904C164.069 291.347 162.081 284.881 162.025 279.891C162.035 279.047 162.097 278.204 162.21 277.368L173.326 233.21C173.326 233.21 185.739 207.419 168.45 199.866C155.144 194.048 123.156 185.036 109.153 181.234C112.321 177.956 114.365 175.41 114.365 175.41L113.989 174.537L114.365 174.075C114.365 174.075 112.725 170.324 110.467 164.731L117.91 158.068C117.91 158.068 117.623 158.017 117.157 157.904L117.466 157.623C117.466 157.623 117.163 157.566 116.663 157.448C121.864 152.897 133.62 141.762 127.661 138.951C121.914 136.237 111.006 144.905 106.153 149.169C105.755 149.321 105.272 149.501 104.71 149.698C103.969 147.631 103.244 145.536 102.547 143.452L112.141 128.278C112.169 127.991 112.186 127.715 112.186 127.45C115.146 123.282 123.779 109.99 117.46 105.157C110.512 99.8288 103.564 116.794 102.519 119.475C101.89 119.396 101.497 119.384 101.497 119.384C100.801 120.781 99.0144 121.812 97.4642 122.477C97.4642 122.341 97.4642 122.201 97.4642 122.071C97.4642 121.942 97.4642 121.722 97.4923 121.553C97.6396 119.856 97.6996 118.153 97.672 116.45C97.672 115.442 97.672 114.434 97.5934 113.425C97.4024 110.705 97.2058 107.23 97.1777 104.2C97.1777 101.468 97.4136 99.3444 97.9641 98.9332L97.5428 98.4601C97.5927 98.1366 97.7396 97.836 97.9641 97.5984C97.9641 97.5984 97.5147 97.0858 96.7845 96.2804C98.0708 92.5743 100.065 87.1503 102.227 82.4697L102.688 82.374C102.851 82.036 103.014 81.6981 103.177 81.3714C106.87 80.4137 110.231 78.4575 112.892 75.716C115.553 72.9746 117.413 69.5531 118.268 65.8247C119.124 62.0962 118.942 58.2039 117.742 54.572C116.543 50.9401 114.372 47.7081 111.467 45.2283C111.707 45.1059 111.93 44.9525 112.13 44.7721C113.253 43.7188 113.337 41.9559 113.326 40.4239C113.326 36.5751 113.308 32.7244 113.27 28.8718C113.27 27.3793 113.27 25.8304 112.613 24.4786C112.358 23.9354 111.993 23.4519 111.54 23.0592C111.203 22.6219 110.761 22.2781 110.255 22.0603C109.749 21.8424 109.195 21.7578 108.647 21.8145C107.299 22.0341 106.373 23.2338 105.457 24.2533C103.051 26.8533 99.9517 28.7066 96.5268 29.5932C93.1019 30.4797 89.4953 30.3623 86.1349 29.2548C84.4499 28.6916 82.8378 27.8355 81.0797 27.6384C79.3216 27.4412 77.2827 28.1058 76.5862 29.7392C75.7886 31.5585 76.912 33.7495 76.2829 35.6364C75.0697 39.2974 68.9192 38.6328 67.1049 42.0348C65.5827 44.8904 68.1721 48.067 69.9134 50.7875C73.1768 55.8567 73.7609 62.1199 75.4572 67.8987C76.1537 70.2812 78.0241 75.4799 80.6585 77.9131C80.8983 78.1725 81.1554 78.4152 81.428 78.6397C80.9419 80.533 80.3474 82.3967 79.6474 84.2214C78.2086 83.8732 76.6939 84.0364 75.3617 84.6833C71.3738 86.9081 51.417 97.5758 50.0858 125.586C49.9959 127.506 49.9566 129.557 49.9678 131.708C49.833 160.754 58.9548 210.066 58.9548 210.066C58.9548 210.066 60.404 208.613 62.7575 206.625C66.3691 211.857 77.923 219.427 114.377 220.294L151.167 221.646C151.167 221.646 155.155 224.316 149.836 230.54C146.348 234.623 145.904 244.058 146.022 250.073C146.098 254.152 145.676 258.224 144.764 262.2C143.809 266.362 142.613 271.47 141.787 274.591C141.35 274.317 140.928 274.02 140.523 273.701L135.204 308.825H135.266L135.204 309.253C135.204 309.253 174.224 320.365 185.756 312.367C188.851 310.221 189.896 308.391 189.778 306.87C190.092 302.392 180.431 300.348 180.431 300.348Z" fill="url(#paint6_linear)"/>
<path d="M84.4049 71.6387C84.4049 71.6387 82.2537 90.6255 75.3674 94.5118C68.4811 98.3982 96.0487 102.707 96.0487 102.707C96.0487 102.707 103.794 78.1103 108.968 75.9531C114.141 73.7959 84.4049 71.6387 84.4049 71.6387Z" fill="#FDB797"/>
<path d="M102.907 121.265C102.907 121.265 110.209 101.417 117.539 107.027C124.869 112.637 111.512 129.9 111.512 129.9L102.907 121.265Z" fill="#FDB797"/>
<path d="M62.909 200.671C62.909 200.671 59.8984 217.501 114.551 218.796L150.268 220.091C150.268 220.091 154.144 222.682 148.977 228.72C145.606 232.663 145.163 241.844 145.275 247.679C145.349 251.634 144.94 255.584 144.056 259.439C142.725 265.246 140.899 272.957 140.371 274.033C139.512 275.756 160.592 275.756 160.592 275.756L171.781 231.306C171.781 231.306 183.829 206.275 167.046 198.942C150.263 191.608 102.924 179.093 102.924 179.093L62.909 200.671Z" fill="#4C4D4E"/>
<path opacity="0.1" d="M154.122 272.738C154.122 272.738 160.126 267.336 162.07 269.392C162.07 269.392 155.84 283.963 170.905 292.158L178.651 296.473C178.651 296.473 195.001 299.925 183.812 307.692C172.624 315.459 134.755 304.673 134.755 304.673L139.917 270.58C139.917 270.58 147.235 276.624 154.122 272.738Z" fill="black"/>
<path d="M154.122 273.171C154.122 273.171 160.126 267.77 162.07 269.826C162.07 269.826 155.84 284.397 170.905 292.592L178.651 296.906C178.651 296.906 195.001 300.359 183.812 308.126C172.624 315.893 134.755 305.107 134.755 305.107L139.917 271.014C139.917 271.014 147.235 277.052 154.122 273.171Z" fill="#333333"/>
<path d="M95.5938 124.718C95.5938 124.718 100.756 123.423 102.048 120.832C102.048 120.832 113.236 121.266 112.377 129.461L101.188 147.152L95.5938 124.718Z" fill="#2A2A2A"/>
<path opacity="0.1" d="M86.9831 90.6255C86.9831 90.6255 80.5293 86.3111 76.6537 88.4683C72.778 90.6255 53.4166 100.983 52.1247 128.149C50.8328 155.314 60.7298 208.85 60.7298 208.85C60.7298 208.85 75.3618 194.177 86.9831 194.611C98.6044 195.045 114.506 175.19 114.506 175.19C114.506 175.19 97.0935 135.364 98.1214 122.922C98.3216 120.729 98.3554 118.524 98.2225 116.326C97.8349 110.744 97.408 101.851 98.582 100.967C98.6044 100.983 89.14 90.1974 86.9831 90.6255Z" fill="black"/>
<path d="M86.983 89.3296C86.983 89.3296 80.5292 85.0152 76.6536 87.1724C72.7779 89.3296 53.4165 99.6876 52.1247 126.875C50.8328 154.063 60.7353 207.565 60.7353 207.565C60.7353 207.565 75.3673 192.892 86.9887 193.326C98.61 193.76 114.511 173.906 114.511 173.906C114.511 173.906 97.099 134.079 98.1269 121.637C98.3271 119.444 98.3609 117.239 98.228 115.041C97.8405 109.46 97.4136 100.566 98.5875 99.6819C98.6044 99.6876 89.1399 88.9015 86.983 89.3296Z" fill="#2A2A2A"/>
<path d="M104.199 151.906C104.199 151.906 120.123 136.372 127.436 139.824C134.749 143.277 114.517 159.673 114.517 159.673L104.199 151.906Z" fill="#FDB797"/>
<path opacity="0.1" d="M66.3298 123.423C66.3298 123.423 71.4917 166.578 74.508 169.169C77.5243 171.76 86.9887 183.841 105.923 169.169L117.955 158.377C117.955 158.377 106.333 156.22 108.058 149.749C108.058 149.749 92.5663 156.22 89.9825 151.044C87.3988 145.868 93.8582 122.133 93.8582 122.133C93.8582 122.133 90.415 100.989 80.5181 104.87C70.6211 108.75 66.3298 123.423 66.3298 123.423Z" fill="black"/>
<path d="M65.8972 122.995C65.8972 122.995 71.0591 166.15 74.0754 168.741C77.0917 171.332 86.5561 183.413 105.491 168.741L117.539 157.955C117.539 157.955 105.918 155.798 107.642 149.326C107.642 149.326 92.1505 155.798 89.5668 150.622C86.983 145.446 93.4424 121.711 93.4424 121.711C93.4424 121.711 89.9993 100.55 80.1023 104.436C70.2054 108.322 65.8972 122.995 65.8972 122.995Z" fill="#2A2A2A"/>
<path opacity="0.1" d="M84.405 72.5C84.405 72.5 84.9049 73.1477 84.1915 76.6004C87.8987 80.8359 92.5438 85.4489 98.6101 85.4489C100.155 85.4483 101.695 85.2707 103.199 84.9194C105.142 80.8641 107.187 77.5523 108.94 76.82C114.096 74.6403 84.405 72.5 84.405 72.5Z" fill="black"/>
<path d="M98.6043 84.5875C109.775 84.5875 118.831 75.5068 118.831 64.3052C118.831 53.1036 109.775 44.0229 98.6043 44.0229C87.4336 44.0229 78.3779 53.1036 78.3779 64.3052C78.3779 75.5068 87.4336 84.5875 98.6043 84.5875Z" fill="#FDB797"/>
<path opacity="0.1" d="M89.6174 73.6325C89.9488 72.0779 90.224 70.2812 89.2354 69.0364C88.6737 68.3042 87.7357 67.91 87.0786 67.2566C84.7869 64.9361 86.8033 61.0046 89.1568 58.7461C94.5385 53.615 101.439 50.3787 108.816 49.5258C110.063 49.385 111.417 49.2724 112.338 48.3993C113.461 47.3742 113.506 45.6845 113.5 44.1807L113.444 32.9722C113.444 31.5247 113.444 30.0208 112.81 28.7085C112.175 27.3961 110.821 26.326 109.394 26.5569C108.086 26.7709 107.187 27.9368 106.3 28.9281C103.964 31.4522 100.956 33.2513 97.6317 34.1119C94.3073 34.9725 90.8064 34.8584 87.5447 33.7833C85.9159 33.22 84.3431 32.4033 82.63 32.2175C80.9168 32.0316 78.9453 32.6737 78.2488 34.2564C77.4737 36.025 78.5634 38.1484 77.9567 39.9789C76.7772 43.533 70.8064 42.8852 69.0484 46.1746C67.5711 48.9457 70.0819 52.0322 71.7838 54.6738C74.9517 59.5853 75.519 65.6739 77.1648 71.2838C78.0354 74.2633 80.7933 81.7769 84.6015 82.2557C89.1231 82.8527 88.9153 76.9556 89.6174 73.6325Z" fill="black"/>
<path d="M89.1905 73.1987C89.5219 71.6441 89.7971 69.8474 88.8085 68.6026C88.2468 67.8704 87.3088 67.4761 86.6517 66.8228C84.36 64.5022 86.3764 60.5596 88.7468 58.3066C94.1284 53.1755 101.029 49.9393 108.406 49.0864C109.653 48.9456 111.006 48.8329 111.928 47.9599C113.051 46.9348 113.096 45.2451 113.09 43.7412L113.034 32.5328C113.034 31.0852 113.034 29.5814 112.399 28.269C111.765 26.9567 110.411 25.8865 108.984 26.1175C107.676 26.3315 106.777 27.4974 105.889 28.4887C103.554 31.0127 100.546 32.8118 97.2217 33.6724C93.8973 34.533 90.3964 34.419 87.1347 33.3438C85.5058 32.7806 83.9331 31.9639 82.2199 31.778C80.5068 31.5921 78.5353 32.2342 77.8388 33.8169C77.0636 35.5855 78.1533 37.7089 77.5467 39.5395C76.3671 43.0935 70.3964 42.4458 68.6383 45.7351C67.1611 48.5062 69.6718 51.5928 71.3737 54.2344C74.5417 59.1458 75.109 65.2345 76.7547 70.8443C77.6253 73.8239 80.3832 81.3375 84.1915 81.8162C88.6906 82.4189 88.4828 76.5218 89.1905 73.1987Z" fill="#997E26"/>
<path d="M133.06 84.1042L106.175 89.9082L111.779 116.008L138.663 110.204L133.06 84.1042Z" fill="#7CFCFF"/>
<path d="M473.155 102.239C472.593 99.8399 471.47 97.6039 470.661 95.2721C469.554 91.8924 468.985 88.3588 468.976 84.8014C468.976 79.0226 469.987 73.1255 470.914 67.3917C471.683 62.6211 472.34 57.6645 472.267 52.8263C472.267 47.7853 471.487 42.857 469.234 38.368C466.746 33.4114 462.09 29.1702 456.574 28.7929C451.328 28.438 446.463 31.5302 441.296 32.3582C436.128 33.1861 430.95 31.7611 425.777 32.1385C420.849 32.5102 416.178 34.4883 412.476 37.7709C409.639 40.3111 407.387 43.8088 407.342 47.6276C407.342 47.7684 407.342 47.9036 407.342 48.0388C407.342 48.174 407.342 48.219 407.342 48.3148C407.275 54.1894 411.717 56.2846 416.773 57.1802C416.365 59.8904 416.5 62.6549 417.17 65.3123C417.839 67.9697 419.029 70.467 420.671 72.6584C422.312 74.8498 424.373 76.6916 426.731 78.0763C429.09 79.461 431.7 80.3609 434.41 80.7236C434.657 81.1704 434.896 81.6266 435.129 82.0923C435.185 82.8132 435.224 83.5341 435.23 84.2607C435.156 88.192 434.308 92.07 432.736 95.672C431.696 96.3351 430.577 96.8649 429.405 97.249L416.396 112.378C415.077 113.619 413.92 115.023 412.953 116.557C412.519 116.801 412.083 117.039 411.644 117.272L412.403 117.469L412.341 117.582L411.65 117.959L412.071 118.072C410.591 120.757 409.837 123.785 409.886 126.853C409.861 129.727 410.569 132.559 411.942 135.082C412.833 136.822 413.605 138.621 414.251 140.466L409.886 147.467L395.136 169.378L383.807 171.518C381.27 171.21 378.705 171.21 376.168 171.518L378.505 167.096C378.575 166.963 378.618 166.817 378.631 166.667C378.644 166.517 378.626 166.365 378.58 166.222C378.533 166.079 378.458 165.946 378.36 165.832C378.261 165.718 378.141 165.625 378.006 165.559C377.871 165.493 377.724 165.454 377.574 165.446C377.424 165.437 377.273 165.459 377.132 165.51C376.99 165.561 376.861 165.64 376.75 165.742C376.639 165.844 376.551 165.968 376.488 166.105L373.371 172.002C369.838 172.808 366.142 174.452 363.57 177.713C360.761 181.256 363.57 182.456 367.732 182.67L367.299 183.481C367.205 183.674 367.169 183.891 367.194 184.104C367.219 184.318 367.304 184.52 367.44 184.686C366.912 184.833 366.316 184.996 365.755 185.182H356.324V189.66C353.622 191.569 351.302 194.047 350.145 197.235C342.619 203.634 341.978 215.901 341.978 215.901L317.916 286.419C317.916 286.419 317.393 287.202 316.607 288.475C310.007 292.671 296.863 309.174 300.318 315.994L314.798 308.627L315.175 308.785L316.231 307.901L345.438 293.059L338.962 279.947L338.063 280.285C337.799 278.967 337.906 277.75 338.883 277.137C340.473 276.14 350.606 256.747 358.835 240.633C361.71 249.251 367.709 269.285 364.895 279.023L363.822 279.829C358.728 284.616 349.718 305.738 355.167 311.545L369.804 297.785L381.083 287.461L381.302 286.982L392.03 276.844L382.156 266.075L380.617 267.201C379.724 264.554 377.87 258.567 378.668 256.449C379.465 254.331 381.555 232.99 378.314 218.379L380.639 218.222C388.711 228.788 398.467 238.189 401.309 238.904C401.589 238.97 401.88 238.98 402.163 238.932C407.69 239.822 417.778 217.574 417.778 217.574H445.907C470.672 214.026 466.572 194.059 461.595 181.921C461.747 181.994 461.893 182.067 462.034 182.141C462.034 182.141 461.977 181.876 461.876 181.375L462.034 181.453C460.538 173.822 459.769 166.065 459.736 158.287C459.718 152.873 460.205 147.468 461.191 142.145C463.146 145.581 466.168 148.487 470.009 148.966C472.086 136.484 473.321 123.877 473.705 111.229C473.705 110.333 473.75 109.438 473.75 108.542C473.811 106.425 473.611 104.308 473.155 102.239ZM400.613 180.609L402.079 178.919C408.819 177.989 415.773 176.902 420.396 175.832C418.801 177.994 416.763 179.788 414.419 181.093C410.903 180.89 405.988 180.654 400.613 180.609ZM417.975 160.861L416.396 165.322L413.588 165.885L417.975 160.861ZM370.231 182.698C372.864 182.603 375.489 182.362 378.095 181.977L377.943 182.107C375.83 182.476 373.752 183.022 371.731 183.74C371.731 183.74 370.86 183.864 369.484 184.185L370.231 182.698Z" fill="url(#paint7_linear)"/>
<path d="M368.54 184.512C368.413 184.449 368.299 184.362 368.206 184.256C368.112 184.149 368.04 184.025 367.994 183.89C367.948 183.756 367.929 183.614 367.938 183.472C367.947 183.33 367.984 183.192 368.046 183.064L376.893 166.353C376.955 166.225 377.042 166.111 377.148 166.017C377.254 165.923 377.378 165.851 377.512 165.805C377.646 165.759 377.788 165.74 377.929 165.749C378.071 165.758 378.209 165.794 378.336 165.857C378.464 165.92 378.577 166.006 378.671 166.113C378.765 166.22 378.837 166.344 378.883 166.478C378.929 166.613 378.948 166.755 378.939 166.897C378.93 167.038 378.893 167.177 378.831 167.305L369.984 184.016C369.922 184.143 369.835 184.258 369.729 184.352C369.622 184.446 369.499 184.518 369.365 184.564C369.231 184.61 369.089 184.629 368.947 184.62C368.806 184.611 368.668 184.574 368.54 184.512Z" fill="#4D8AF0"/>
<path d="M372.315 183.306C372.315 183.306 348.292 186.781 350.932 203.318L358.52 234.082C358.52 234.082 369.754 264.182 365.446 275.762C365.446 275.762 361.16 294.287 356.869 293.622C352.577 292.958 366.103 296.928 366.103 296.928L381.268 283.033L385.88 272.777C385.88 272.777 387.2 269.797 381.263 264.841C381.263 264.841 377.966 255.908 378.954 253.266C379.943 250.625 382.886 218.266 374.826 207.154L372.315 183.306Z" fill="#BE7C5E"/>
<path opacity="0.1" d="M372.315 183.306C372.315 183.306 348.292 186.781 350.932 203.318L358.52 234.082C358.52 234.082 369.754 264.182 365.446 275.762C365.446 275.762 361.16 294.287 356.869 293.622C352.577 292.958 366.103 296.928 366.103 296.928L381.268 283.033L385.88 272.777C385.88 272.777 387.2 269.797 381.263 264.841C381.263 264.841 377.966 255.908 378.954 253.266C379.943 250.625 382.886 218.266 374.826 207.154L372.315 183.306Z" fill="black"/>
<path d="M356.363 306.194L391.828 272.856L382.33 262.498L364.682 275.717C359.784 280.319 351.117 300.607 356.363 306.217V306.194Z" fill="#F5F5F5"/>
<path d="M418.553 181.155C418.553 181.155 382.931 177.848 370.394 184.134C370.394 184.134 369.405 189.429 374.68 195.709C379.954 201.989 418.553 181.155 418.553 181.155Z" fill="#333333"/>
<path opacity="0.3" d="M418.553 181.155C418.553 181.155 382.931 177.848 370.394 184.134C370.394 184.134 369.405 189.429 374.68 195.709C379.954 201.989 418.553 181.155 418.553 181.155Z" fill="black"/>
<path d="M391.789 184.703H357.492V189.508H391.789V184.703Z" fill="#E0E0E0"/>
<path d="M379.302 191.079C379.302 191.079 360.171 189.755 352.252 195.709C344.332 201.662 343.675 214.234 343.675 214.234L320.584 282.042C320.584 282.042 313.422 292.811 312.338 299.244C312.007 301.226 317.955 303.541 317.955 303.541L338.075 286.644L342.006 281.011C342.006 281.011 338.074 274.726 340.686 273.075C343.298 271.425 370.372 217.174 370.372 217.174L405.028 214.887L379.302 191.079Z" fill="#BE7C5E"/>
<path opacity="0.1" d="M453.518 172.554C453.518 172.554 477.598 210.922 442.964 215.884H415.913C415.913 215.884 406.016 237.715 400.748 236.392C395.479 235.068 365.451 202.653 370.068 191.073L412.622 181.149C412.622 181.149 420.536 177.51 421.199 170.233L453.518 172.554Z" fill="black"/>
<path d="M454.181 172.554C454.181 172.554 478.261 210.945 443.621 215.884H416.576C416.576 215.884 406.679 237.715 401.411 236.392C396.142 235.068 366.108 202.654 370.714 191.079L413.268 181.155C413.268 181.155 421.182 177.516 421.845 170.239L454.181 172.554Z" fill="#333333"/>
<path d="M303.66 310.475L347.011 288.418L340.782 275.813L320.162 283.529C314.175 286.577 300.194 303.62 303.666 310.475H303.66Z" fill="#F5F5F5"/>
<path d="M417.233 135.178L408.988 148.425L389.194 177.866C389.194 177.866 373.029 178.525 375.011 191.428C376.994 204.332 396.12 184.81 396.12 184.81L428.136 148.425L417.233 135.178Z" fill="#BE7C5E"/>
<path opacity="0.1" d="M417.233 135.178L408.988 148.425L389.194 177.866C389.194 177.866 373.029 178.525 375.011 191.428C376.994 204.332 396.12 184.81 396.12 184.81L428.136 148.425L417.233 135.178Z" fill="black"/>
<path d="M435.213 84.4071C446.145 84.4071 455.007 75.5206 455.007 64.5585C455.007 53.5965 446.145 44.71 435.213 44.71C424.281 44.71 415.419 53.5965 415.419 64.5585C415.419 75.5206 424.281 84.4071 435.213 84.4071Z" fill="#BE7C5E"/>
<path d="M425.479 74.9783C425.479 74.9783 442.964 90.856 433.067 107.083C423.17 123.31 457.478 96.1674 457.478 96.1674C457.478 96.1674 445.604 76.3019 448.227 64.395L425.479 74.9783Z" fill="#BE7C5E"/>
<path opacity="0.1" d="M438.679 91.5376C438.679 91.5376 434.062 98.8147 427.793 100.797L415.256 115.335C415.256 115.335 404.702 124.594 410.971 136.501C417.239 148.408 420.867 177.848 420.867 177.848C420.867 177.848 451.873 177.848 459.13 181.791C459.13 181.791 452.861 153.015 461.438 132.834C470.015 112.653 454.838 84.8745 454.838 84.8745L438.679 91.5376Z" fill="black"/>
<path d="M438.679 90.8564C438.679 90.8564 434.062 98.1335 427.793 100.116L415.256 114.67C415.256 114.67 404.702 123.93 410.971 135.837C417.239 147.744 420.867 177.184 420.867 177.184C420.867 177.184 451.873 177.184 459.13 181.127C459.13 181.127 452.861 152.351 461.438 132.17C470.015 111.989 454.838 84.2158 454.838 84.2158L438.679 90.8564Z" fill="#F55F44"/>
<path d="M451.541 123.935C451.541 123.935 428.782 171.247 423.833 174.21C418.885 177.173 381.28 181.155 381.28 181.155C381.28 181.155 358.189 185.452 364.429 177.516C370.669 169.58 383.891 171.563 383.891 171.563L415.228 165.609L433.371 114.354L451.541 123.935Z" fill="#BE7C5E"/>
<path opacity="0.1" d="M441.313 101.439C441.313 101.439 423.17 112.355 426.799 122.279C426.799 122.279 447.581 119.3 454.838 133.195C454.838 133.195 466.381 120.297 457.478 106.401C457.478 106.401 452.53 97.4685 441.313 101.439Z" fill="black"/>
<path d="M441.313 100.781C441.313 100.781 423.17 111.696 426.799 121.62C426.799 121.62 447.581 118.641 454.838 132.536C454.838 132.536 466.381 119.638 457.478 105.743C457.478 105.743 452.53 96.8098 441.313 100.781Z" fill="#F55F44"/>
<path opacity="0.1" d="M426.271 62.5029C426.565 62.4893 426.859 62.5353 427.136 62.638C427.412 62.7408 427.665 62.8984 427.879 63.1012C428.094 63.3041 428.265 63.5482 428.383 63.8189C428.502 64.0896 428.565 64.3815 428.568 64.677L431.039 74.1733C432.213 78.6792 433.398 83.2639 433.398 87.9276C433.398 101.727 422.872 113.628 410.684 120.032L423.153 123.316C424.371 123.725 425.658 123.886 426.939 123.789C427.996 123.586 429.001 123.17 429.894 122.567C435.196 119.311 438.999 114.006 441.509 108.3C444.02 102.594 445.357 96.4719 446.682 90.3664C450.796 97.6858 453.324 105.792 454.102 114.158C454.939 123.243 453.754 132.778 457.253 141.193C458.989 145.367 462.309 149.343 466.802 149.901C468.799 137.904 469.987 125.785 470.358 113.628C470.442 110.936 470.476 108.21 469.841 105.591C469.279 103.281 468.212 101.136 467.442 98.8882C464.454 90.1298 466.207 80.5548 467.684 71.419C469.161 62.2833 470.217 52.4378 466.066 44.1695C463.674 39.4045 459.197 35.3266 453.889 34.9661C448.834 34.6282 444.189 37.5965 439.201 38.3906C434.213 39.1848 429.253 37.8274 424.282 38.1822C419.532 38.5552 415.035 40.4804 411.481 43.6626C408.752 46.107 406.589 49.4696 406.55 53.1363C406.437 62.9817 419.626 61.7426 426.271 62.5029Z" fill="#333333"/>
<path d="M426.271 61.844C426.565 61.8304 426.86 61.8763 427.136 61.9791C427.412 62.0819 427.665 62.2394 427.88 62.4423C428.094 62.6452 428.265 62.8892 428.384 63.16C428.502 63.4307 428.565 63.7225 428.568 64.0181L431.04 73.5143C432.214 78.0202 433.399 82.605 433.399 87.2686C433.399 101.068 422.873 112.969 410.684 119.373L423.154 122.657C424.371 123.066 425.659 123.227 426.939 123.13C427.996 122.927 429.001 122.511 429.894 121.908C435.196 118.652 438.999 113.347 441.509 107.641C444.02 101.935 445.357 95.813 446.683 89.7075C450.799 97.0281 453.329 105.137 454.108 113.504C454.945 122.589 453.76 132.125 457.259 140.54C458.995 144.713 462.314 148.69 466.808 149.248C468.805 137.251 469.993 125.132 470.363 112.975C470.448 110.283 470.481 107.557 469.847 104.937C469.285 102.628 468.218 100.482 467.448 98.2349C464.46 89.4765 466.213 79.9014 467.69 70.7657C469.167 61.6299 470.223 51.7845 466.072 43.5162C463.679 38.7512 459.203 34.6733 453.895 34.3128C448.84 33.9749 444.194 36.9432 439.207 37.7373C434.219 38.5315 429.259 37.1741 424.288 37.5289C419.547 37.8917 415.055 39.8006 411.498 42.9642C408.769 45.4086 406.606 48.7712 406.567 52.4379C406.438 62.3227 419.626 61.0836 426.271 61.844Z" fill="#333333"/>
<defs>
<linearGradient id="paint0_linear" x1="248.878" y1="79.6477" x2="248.878" y2="52.0039" gradientUnits="userSpaceOnUse">
<stop stop-color="#808080" stop-opacity="0.25"/>
<stop offset="0.54" stop-color="#808080" stop-opacity="0.12"/>
<stop offset="1" stop-color="#808080" stop-opacity="0.1"/>
</linearGradient>
<linearGradient id="paint1_linear" x1="14863.5" y1="5155.87" x2="14863.5" y2="3798.55" gradientUnits="userSpaceOnUse">
<stop stop-color="#808080" stop-opacity="0.25"/>
<stop offset="0.54" stop-color="#808080" stop-opacity="0.12"/>
<stop offset="1" stop-color="#808080" stop-opacity="0.1"/>
</linearGradient>
<linearGradient id="paint2_linear" x1="17097.8" y1="3636.34" x2="17097.8" y2="2279.3" gradientUnits="userSpaceOnUse">
<stop stop-color="#808080" stop-opacity="0.25"/>
<stop offset="0.54" stop-color="#808080" stop-opacity="0.12"/>
<stop offset="1" stop-color="#808080" stop-opacity="0.1"/>
</linearGradient>
<linearGradient id="paint3_linear" x1="14832.4" y1="1363.24" x2="14832.4" y2="5.9245" gradientUnits="userSpaceOnUse">
<stop stop-color="#808080" stop-opacity="0.25"/>
<stop offset="0.54" stop-color="#808080" stop-opacity="0.12"/>
<stop offset="1" stop-color="#808080" stop-opacity="0.1"/>
</linearGradient>
<linearGradient id="paint4_linear" x1="12604.5" y1="1357.31" x2="12604.5" y2="0" gradientUnits="userSpaceOnUse">
<stop stop-color="#808080" stop-opacity="0.25"/>
<stop offset="0.54" stop-color="#808080" stop-opacity="0.12"/>
<stop offset="1" stop-color="#808080" stop-opacity="0.1"/>
</linearGradient>
<linearGradient id="paint5_linear" x1="10593.5" y1="2550.99" x2="10593.5" y2="1193.96" gradientUnits="userSpaceOnUse">
<stop stop-color="#808080" stop-opacity="0.25"/>
<stop offset="0.54" stop-color="#808080" stop-opacity="0.12"/>
<stop offset="1" stop-color="#808080" stop-opacity="0.1"/>
</linearGradient>
<linearGradient id="paint6_linear" x1="49184.3" y1="214013" x2="49184.3" y2="61115.3" gradientUnits="userSpaceOnUse">
<stop stop-color="#808080" stop-opacity="0.25"/>
<stop offset="0.54" stop-color="#808080" stop-opacity="0.12"/>
<stop offset="1" stop-color="#808080" stop-opacity="0.1"/>
</linearGradient>
<linearGradient id="paint7_linear" x1="144131" y1="209856" x2="144131" y2="63380.2" gradientUnits="userSpaceOnUse">
<stop stop-color="#808080" stop-opacity="0.25"/>
<stop offset="0.54" stop-color="#808080" stop-opacity="0.12"/>
<stop offset="1" stop-color="#808080" stop-opacity="0.1"/>
</linearGradient>
</defs>
</svg>
