<svg width="232" height="203" viewBox="0 0 232 203" fill="none" xmlns="http://www.w3.org/2000/svg">
<g clip-path="url(#clip0)">
<path opacity="0.2" d="M210.032 72.9975H196.642V79.9619H210.032V72.9975Z" fill="#0076FF"/>
<path opacity="0.2" d="M211.062 81.5095H197.672V88.4739H211.062V81.5095Z" fill="#0076FF"/>
<path opacity="0.2" d="M199.989 22.4409H186.599V29.4053H199.989V22.4409Z" fill="#0076FF"/>
<path opacity="0.2" d="M209.517 30.4371H196.126V37.4015H209.517V30.4371Z" fill="#0076FF"/>
<path opacity="0.2" d="M183.766 22.9568H170.376V29.9212H183.766V22.9568Z" fill="#0076FF"/>
<path opacity="0.2" d="M226.77 38.4333H213.38V45.3977H226.77V38.4333Z" fill="#0076FF"/>
<path opacity="0.2" d="M210.547 38.9492H197.156V45.9136H210.547V38.9492Z" fill="#0076FF"/>
<path opacity="0.2" d="M193.294 30.953H179.903V37.9174H193.294V30.953Z" fill="#0076FF"/>
<path opacity="0.2" d="M225.997 92.0851H212.607V99.0496H225.997V92.0851Z" fill="#0076FF"/>
<path opacity="0.2" d="M209.774 92.601H196.384V99.5654H209.774V92.601Z" fill="#0076FF"/>
<path d="M33.6694 71.1919C33.6694 71.1919 52.5422 90.0964 41.8891 118.137C31.236 146.178 60.1491 192.847 60.1491 192.847C60.1491 192.847 59.84 192.801 59.2658 192.7C20.5056 185.847 1.24648 141.442 22.8103 108.464C30.8136 96.189 37.3904 81.8036 33.6694 71.1919Z" fill="#0076FF"/>
<path d="M33.6694 71.1919C33.6694 71.1919 44.3225 94.3653 33.6694 113.267C23.0162 132.169 31.8436 185.233 60.1516 192.847" stroke="#535461" stroke-width="2" stroke-miterlimit="10"/>
<path d="M0.0539551 147.651C0.0539551 147.651 21.5894 144.215 23.5516 163.548C25.5139 182.881 64.9642 185.561 64.9642 185.561C64.9642 185.561 64.7067 185.736 64.2252 186.053C31.6529 207.462 0.517471 199.696 5.21186 171.258C6.95519 160.685 6.81099 150.065 0.0539551 147.651Z" fill="#0076FF"/>
<path opacity="0.2" d="M0.0539551 147.651C0.0539551 147.651 21.5894 144.215 23.5516 163.548C25.5139 182.881 64.9642 185.561 64.9642 185.561C64.9642 185.561 64.7067 185.736 64.2252 186.053C31.6529 207.462 0.517471 199.696 5.21186 171.258C6.95519 160.685 6.81099 150.065 0.0539551 147.651Z" fill="#F5F5F5"/>
<path d="M0.0539551 147.651C0.0539551 147.651 16.7689 151.327 15.3963 166.55C14.0238 181.774 40.2202 200.034 64.9642 185.561" stroke="#535461" stroke-width="2" stroke-miterlimit="10"/>
<path opacity="0.2" d="M13.5528 73.2554H0.162354V80.2198H13.5528V73.2554Z" fill="#0076FF"/>
<path opacity="0.2" d="M23.0806 81.2516H9.69019V88.216H23.0806V81.2516Z" fill="#0076FF"/>
<path opacity="0.2" d="M95.4405 0H82.05V6.96442H95.4405V0Z" fill="#0076FF"/>
<path opacity="0.2" d="M201.019 128.455H187.629V135.419H201.019V128.455Z" fill="#0076FF"/>
<path opacity="0.2" d="M24.1107 89.7637H10.7202V96.7281H24.1107V89.7637Z" fill="#0076FF"/>
<path opacity="0.2" d="M104.968 7.99619H91.5779V14.9606H104.968V7.99619Z" fill="#0076FF"/>
<path opacity="0.2" d="M56.0418 55.1995H42.6514V62.1639H56.0418V55.1995Z" fill="#0076FF"/>
<path opacity="0.2" d="M65.5694 63.1957H52.179V70.1601H65.5694V63.1957Z" fill="#0076FF"/>
<path opacity="0.2" d="M91.0628 58.8107H77.6724V65.7751H91.0628V58.8107Z" fill="#0076FF"/>
<path opacity="0.2" d="M66.5994 71.7077H53.209V78.6722H66.5994V71.7077Z" fill="#0076FF"/>
<path opacity="0.2" d="M219.045 128.455H205.654V135.419H219.045V128.455Z" fill="#0076FF"/>
<path d="M185.574 100.884C184.707 96.0502 184.175 91.1626 183.982 86.2557C183.811 82.2145 182.396 78.3254 179.932 75.1214C177.467 71.9175 174.073 69.5556 170.216 68.3597C168.81 67.9263 167.262 67.5214 165.552 67.1577C150.565 63.9695 146.013 66.7527 145.495 67.119C145.057 66.3208 144.675 65.4924 144.354 64.6402C144.329 64.5525 144.305 64.4648 144.28 64.3822C147.246 61.2138 149.053 57.1323 149.407 52.8032C151.907 50.2651 153.367 47.2007 153.367 43.9017C153.367 41.0643 152.286 38.4023 150.393 36.0989V31.6159C150.393 26.4461 148.343 21.4881 144.693 17.8325C141.044 14.1769 136.094 12.1233 130.933 12.1233H129.354C126.799 12.1233 124.268 12.6275 121.907 13.6071C119.546 14.5866 117.401 16.0225 115.594 17.8325C113.787 19.6426 112.354 21.7914 111.376 24.1564C110.398 26.5213 109.894 29.0561 109.894 31.6159V36.4471C108.177 38.668 107.203 41.2036 107.203 43.8965C107.203 47.1259 108.604 50.1284 111.009 52.6356C111.338 57.1232 113.228 61.3532 116.35 64.5886C116.456 65.3211 116.564 66.1078 116.669 66.9384L89.8628 72.6106C89.8628 72.6106 79.5264 73.0362 72.8672 86.7973C67.2355 98.4537 56.0287 128.401 52.7094 137.315C52.1094 138.93 51.7695 139.856 51.7695 139.856C51.7695 139.856 51.8803 139.745 52.0888 139.554L51.7695 140.423C51.7695 140.423 51.9318 140.258 52.2408 139.987C51.7721 143.717 51.7052 150.122 56.5824 150.919C60.6716 151.587 71.2089 151.863 79.1685 151.974H79.7195C84.9959 152.044 89.0105 152.044 89.0105 152.044V151.974H174.617V151.094C174.618 150.297 174.457 149.507 174.145 148.773L174.264 148.629C174.722 149.234 175.027 149.942 175.152 150.692C175.142 150.765 175.129 150.837 175.111 150.909L175.163 150.777C175.183 151.011 175.165 151.247 175.111 151.476C175.111 151.476 186.094 123.131 185.975 106.205C186.007 104.422 185.872 102.641 185.574 100.884ZM117.115 70.7688C116.973 69.9603 116.882 69.1436 116.842 68.3236C116.842 68.3236 116.842 68.3081 116.842 68.3004C116.937 69.0974 117.03 69.9228 117.115 70.7688ZM83.8397 131.653V138.409L79.6165 139.314L83.8397 131.653Z" fill="url(#paint0_linear)"/>
<path d="M129.71 14.8497C134.871 14.8497 139.821 16.9034 143.47 20.559C147.119 24.2145 149.17 29.1726 149.17 34.3423V42.6584H110.25V34.3423C110.25 29.1726 112.3 24.2145 115.949 20.559C119.599 16.9034 124.549 14.8497 129.71 14.8497Z" fill="#323232"/>
<path d="M129.846 60.6524C142.097 60.6524 152.028 53.8168 152.028 45.3848C152.028 36.9528 142.097 30.1172 129.846 30.1172C117.596 30.1172 107.665 36.9528 107.665 45.3848C107.665 53.8168 117.596 60.6524 129.846 60.6524Z" fill="#2A2A2A"/>
<path d="M115.627 60.1752C115.627 60.1752 120.262 84.4397 115.627 90.9837C110.991 97.5277 129.79 100.117 129.79 100.117L149.247 93.0292L151.969 75.5795C151.969 75.5795 140.123 68.8988 142.577 55.4033L115.627 60.1752Z" fill="#F7C4A7"/>
<path d="M173.056 141.968C173.056 141.968 174.282 147.285 167.613 148.239C163.674 148.819 159.67 148.771 155.746 148.097L154.276 134.744H169.791L173.056 141.968Z" fill="#F7C4A7"/>
<path d="M55.2873 135.164C55.2873 135.164 52.3414 147.156 59.0108 148.239C65.6803 149.322 90.1694 149.33 90.1694 149.33V135.143L79.0811 137.516L68.6726 127.519L55.2873 135.164Z" fill="#F7C4A7"/>
<path opacity="0.1" d="M117.058 68.014L90.9958 73.534C90.9958 73.534 81.0611 73.9441 74.6646 87.1662C68.268 100.388 54.3857 138.151 54.3857 138.151C54.3857 138.151 66.2311 126.154 80.1083 138.969L89.3632 122.202L87.3211 148.786H159.032V136.242C159.032 136.242 174.001 144.285 172.914 148.783C172.914 148.783 185.725 115.72 182.957 100.695C182.124 96.0503 181.613 91.3531 181.428 86.6374C181.264 82.7535 179.905 79.0156 177.536 75.9365C175.167 72.8575 171.905 70.5883 168.197 69.4404C166.848 69.0252 165.364 68.6357 163.716 68.2874C148.338 65.0167 144.403 68.2874 144.403 68.2874C144.403 68.2874 141.424 77.9964 141.478 82.3969C141.545 88.0535 133.449 91.804 133.449 91.804C133.449 91.804 121.472 88.9408 120.929 86.6245C120.385 84.3082 116.1 70.7405 117.058 68.014Z" fill="black"/>
<path d="M117.058 67.4698L90.9959 72.9897C90.9959 72.9897 81.0612 73.3999 74.6647 86.6219C68.2682 99.844 54.3833 137.612 54.3833 137.612C54.3833 137.612 66.2287 125.615 80.1059 138.429L89.3607 121.663L87.3187 148.239H159.032V135.698C159.032 135.698 174.001 143.741 172.915 148.239C172.915 148.239 185.726 115.176 182.957 100.151C182.124 95.506 181.613 90.8088 181.428 86.0932C181.264 82.2093 179.905 78.4713 177.536 75.3922C175.167 72.3132 171.905 70.044 168.197 68.8962C166.848 68.4809 165.364 68.0914 163.716 67.7432C148.338 64.4725 144.403 67.7432 144.403 67.7432C144.403 67.7432 141.424 77.4521 141.478 81.8526C141.545 87.5093 133.449 91.2597 133.449 91.2597C133.449 91.2597 121.472 88.3966 120.929 86.0803C120.385 83.7639 116.1 70.1962 117.058 67.4698Z" fill="white"/>
<path opacity="0.1" d="M143.69 66.3116C142.595 63.2069 142.35 59.8654 142.979 56.6336L116.028 61.403C116.028 61.403 116.417 63.4433 116.857 66.4999C118.599 68.3099 120.69 69.7462 123.002 70.7214C125.315 71.6967 127.802 72.1905 130.311 72.1729C132.821 72.1553 135.3 71.6266 137.6 70.619C139.899 69.6113 141.969 68.1458 143.685 66.3116H143.69Z" fill="black"/>
<path d="M148.286 52.406C148.265 57.2704 146.336 61.9317 142.916 65.3847C139.495 68.8377 134.857 70.8059 130.001 70.8648C125.145 70.9236 120.46 69.0686 116.957 65.6995C113.454 62.3304 111.413 57.7173 111.275 52.8548C111.275 52.7052 111.275 52.5556 111.275 52.406C111.274 48.9346 112.246 45.5326 114.08 42.5873C115.914 39.6419 118.537 37.2714 121.65 35.7455C122.204 35.4738 122.774 35.2297 123.36 35.013C126.404 33.8918 129.688 33.586 132.887 34.1257C136.987 34.8249 140.732 36.8879 143.517 39.9815C146.302 43.0751 147.965 47.0188 148.238 51.1756C148.27 51.5831 148.286 51.9933 148.286 52.406Z" fill="#F7C4A7"/>
<g opacity="0.1">
<path opacity="0.1" d="M123.331 35.4489L123.357 35.4334C122.772 35.6501 122.202 35.8943 121.647 36.166C118.534 37.6919 115.912 40.0624 114.078 43.0077C112.243 45.9531 111.271 49.355 111.272 52.8264C111.272 52.976 111.272 53.1257 111.272 53.2753C111.848 53.2597 112.413 53.1235 112.933 52.8754C117.445 50.7655 120.143 44.3118 121.215 39.8107C121.601 38.1986 121.964 36.3827 123.331 35.4489Z" fill="black"/>
<path opacity="0.1" d="M137.497 35.9674C136.032 35.2933 134.485 34.8154 132.895 34.5461C134.199 34.8466 135.363 35.5792 136.199 36.6251C136.609 37.1833 136.949 37.7897 137.211 38.4307C134.748 37.3519 132.08 36.822 129.392 36.8777C126.705 36.9334 124.061 37.5733 121.645 38.7531C122.806 41.3042 126.408 42.6945 128.814 43.6257C131.447 44.6437 134.108 45.5748 136.796 46.4192L134.417 44.4846L139.791 45.341C139.849 44.2696 139.722 43.1963 139.415 42.1683C140.445 42.9989 141.81 43.2774 142.928 43.9739C145.021 45.2971 145.894 47.843 147.035 50.0484C147.336 50.6313 147.692 51.2272 148.235 51.5961C148.015 48.264 146.902 45.0532 145.012 42.3024C143.122 39.5517 140.525 37.363 137.497 35.9674Z" fill="black"/>
</g>
<path d="M123.331 35.0285L123.357 35.013C122.772 35.2297 122.202 35.4738 121.647 35.7455C118.534 37.2714 115.912 39.6419 114.078 42.5873C112.243 45.5326 111.271 48.9346 111.272 52.406C111.272 52.5556 111.272 52.7052 111.272 52.8548C111.848 52.8392 112.413 52.703 112.933 52.455C117.445 50.345 120.143 43.8913 121.215 39.3903C121.601 37.7884 121.964 35.9648 123.331 35.0285Z" fill="#AB8D2B"/>
<path d="M137.497 35.5495C136.032 34.8754 134.485 34.3975 132.895 34.1282C134.199 34.4287 135.363 35.1613 136.199 36.2072C136.609 36.7654 136.949 37.3718 137.211 38.0128C134.748 36.934 132.08 36.4042 129.392 36.4598C126.705 36.5155 124.061 37.1554 121.645 38.3353C122.806 40.8863 126.408 42.2766 128.814 43.2078C131.447 44.2258 134.108 45.157 136.796 46.0013L134.417 44.0667L139.791 44.9231C139.849 43.8517 139.722 42.7784 139.415 41.7504C140.445 42.581 141.81 42.8596 142.928 43.556C145.021 44.8792 145.894 47.4251 147.035 49.6305C147.336 50.2135 147.692 50.8093 148.235 51.1782C148.015 47.8461 146.902 44.6353 145.012 41.8845C143.122 39.1338 140.525 36.9451 137.497 35.5495Z" fill="#AB8D2B"/>
<path opacity="0.1" d="M109.161 49.3494C109.161 49.3494 128.216 25.6188 150.262 49.3494L148.356 44.0332C148.356 44.0332 138.012 28.9023 130.665 32.1679C123.318 35.4334 116.103 37.7575 116.103 37.7575L109.161 49.3494Z" fill="black"/>
<path d="M109.161 48.9289C109.161 48.9289 128.216 25.1983 150.262 48.9289L148.356 43.6128C148.356 43.6128 138.012 28.4819 130.665 31.7474C123.318 35.013 116.103 37.337 116.103 37.337L109.161 48.9289Z" fill="#2A2A2A"/>
<path opacity="0.1" d="M93.5091 100.05C93.5091 100.05 89.4276 110.956 95.1417 120.771C100.856 130.585 90.1074 134.676 90.1074 134.676" fill="black"/>
<path opacity="0.1" d="M159.65 90.2357C159.65 90.2357 166.727 99.2327 162.099 107.275C157.472 115.318 157.745 134.676 157.745 134.676" fill="black"/>
<path d="M87.2492 142.719H165.91C167.643 142.719 169.305 143.409 170.53 144.636C171.755 145.863 172.443 147.527 172.443 149.263H80.7188C80.7187 147.528 81.4067 145.864 82.6313 144.637C83.8559 143.41 85.517 142.72 87.2492 142.719Z" fill="#535461"/>
<path d="M95.2526 97.7315H157.91C159.228 97.7315 160.534 97.9917 161.753 98.4972C162.971 99.0028 164.078 99.7438 165.011 100.678C165.944 101.612 166.683 102.721 167.188 103.941C167.693 105.162 167.952 106.47 167.952 107.791V144.218H85.2097V107.791C85.2097 105.123 86.2678 102.564 88.1512 100.678C90.0346 98.7913 92.589 97.7315 95.2526 97.7315Z" fill="#535461"/>
<path d="M126.511 127.929C129.218 127.929 131.412 125.731 131.412 123.02C131.412 120.309 129.218 118.111 126.511 118.111C123.805 118.111 121.611 120.309 121.611 123.02C121.611 125.731 123.805 127.929 126.511 127.929Z" fill="white"/>
<path opacity="0.1" d="M110.25 38.2269C110.25 38.2269 128.976 19.4797 149.172 37.8839" stroke="#2A2A2A" stroke-miterlimit="10"/>
<path d="M153.903 37.0327H152.023V47.7089H153.903V37.0327Z" fill="#6F6F6F"/>
<path d="M149.515 43.9403C151.233 43.9403 152.881 44.6241 154.096 45.8412C155.311 47.0582 155.994 48.7089 155.994 50.4301V50.848C155.994 52.5692 155.311 54.2199 154.096 55.437C152.881 56.6541 151.233 57.3378 149.515 57.3378V43.9403Z" fill="#373737"/>
<path d="M151.186 44.7786C151.186 43.9695 150.531 43.3135 149.723 43.3135C148.916 43.3135 148.261 43.9695 148.261 44.7786V56.5021C148.261 57.3112 148.916 57.9672 149.723 57.9672C150.531 57.9672 151.186 57.3112 151.186 56.5021V44.7786Z" fill="#6F6F6F"/>
<path d="M105.326 47.9178H107.206V37.2416H105.326V47.9178Z" fill="#6F6F6F"/>
<path d="M109.714 57.5468C107.996 57.5468 106.348 56.863 105.133 55.6459C103.918 54.4289 103.235 52.7781 103.235 51.0569V50.6391C103.235 49.7868 103.403 48.9429 103.728 48.1555C104.054 47.3682 104.531 46.6527 105.133 46.0501C105.734 45.4475 106.449 44.9694 107.235 44.6433C108.021 44.3171 108.863 44.1493 109.714 44.1493V57.5468Z" fill="#373737"/>
<path d="M108.043 56.7085C108.043 57.5176 108.698 58.1736 109.506 58.1736C110.313 58.1736 110.968 57.5176 110.968 56.7085V44.985C110.968 44.1759 110.313 43.5199 109.506 43.5199C108.698 43.5199 108.043 44.1759 108.043 44.985V56.7085Z" fill="#6F6F6F"/>
<path d="M151.801 25.6213C149.255 20.3181 143.708 13.9056 131.752 13.3923V13.3768H131.608L127.372 13.578V13.5987C115.495 14.1455 109.974 20.5347 107.435 25.82C105.744 29.4029 104.846 33.3096 104.803 37.2726L106.266 37.2364L107.729 37.2029C107.792 33.6748 108.602 30.2002 110.106 27.0091C113.33 20.3748 119.263 16.8487 127.737 16.5212L131.484 16.3122C139.964 16.6372 145.899 20.1684 149.121 26.8001C150.627 29.9925 151.439 33.4689 151.503 36.9991L152.965 37.0327L154.428 37.0688C154.386 33.108 153.49 29.2031 151.801 25.6213Z" fill="#454545"/>
<path d="M218.622 149.348H19.1277V203H218.622V149.348Z" fill="#EAEAEF"/>
<path opacity="0.1" d="M218.622 152.959H19.1277V159.924H218.622V152.959Z" fill="black"/>
<path d="M232 148.574H5.74487V155.539H232V148.574Z" fill="#EAEAEF"/>
</g>
<defs>
<linearGradient id="paint0_linear" x1="118.874" y1="152.057" x2="118.874" y2="12.1233" gradientUnits="userSpaceOnUse">
<stop stop-color="#B4B4B4" stop-opacity="0.25"/>
<stop offset="0.54" stop-color="#A5A5A5" stop-opacity="0.12"/>
<stop offset="1" stop-color="#808080" stop-opacity="0.1"/>
</linearGradient>
<clipPath id="clip0">
<rect width="232" height="203" fill="white"/>
</clipPath>
</defs>
</svg>
